<svg width="40" height="40" viewBox="0 0 40 40" fill="none" xmlns="http://www.w3.org/2000/svg">
<g clip-path="url(#clip0_69_1843)">
<path d="M9.16669 28.3333C10.5474 28.3333 11.6667 27.2141 11.6667 25.8333C11.6667 24.4526 10.5474 23.3333 9.16669 23.3333C7.78598 23.3333 6.66669 24.4526 6.66669 25.8333C6.66669 27.2141 7.78598 28.3333 9.16669 28.3333Z" fill="#10C78F"/>
<path d="M31.6667 5H8.33333C6.12401 5.00265 4.00593 5.88147 2.4437 7.4437C0.88147 9.00593 0.00264643 11.124 0 13.3333L0 26.6667C0.00264643 28.876 0.88147 30.9941 2.4437 32.5563C4.00593 34.1185 6.12401 34.9974 8.33333 35H31.6667C33.876 34.9974 35.9941 34.1185 37.5563 32.5563C39.1185 30.9941 39.9974 28.876 40 26.6667V13.3333C39.9974 11.124 39.1185 9.00593 37.5563 7.4437C35.9941 5.88147 33.876 5.00265 31.6667 5ZM8.33333 8.33333H31.6667C32.9927 8.33333 34.2645 8.86012 35.2022 9.7978C36.1399 10.7355 36.6667 12.0073 36.6667 13.3333H3.33333C3.33333 12.0073 3.86012 10.7355 4.7978 9.7978C5.73548 8.86012 7.00725 8.33333 8.33333 8.33333ZM31.6667 31.6667H8.33333C7.00725 31.6667 5.73548 31.1399 4.7978 30.2022C3.86012 29.2645 3.33333 27.9927 3.33333 26.6667V16.6667H36.6667V26.6667C36.6667 27.9927 36.1399 29.2645 35.2022 30.2022C34.2645 31.1399 32.9927 31.6667 31.6667 31.6667Z" fill="#10C78F"/>
</g>
<defs>
<clipPath id="clip0_69_1843">
<rect width="40" height="40" fill="white"/>
</clipPath>
</defs>
</svg>
