<svg width="41" height="40" viewBox="0 0 41 40" fill="none" xmlns="http://www.w3.org/2000/svg">
<g clip-path="url(#clip0_69_1849)">
<path d="M24.0317 8.01668C25.5167 6.62168 27.8383 6.28001 29.655 7.19168L35.2733 10.0017H40.6667V6.66834H36.06L31.1467 4.21001C28.1067 2.68834 24.225 3.25334 21.745 5.59001L20.715 6.56001L19.5483 5.49668C18.0167 4.10168 16.0333 3.33334 13.8983 3.33334C12.6133 3.33334 11.3317 3.63668 10.1867 4.20834L5.27166 6.66668H0.666656V10H6.05999L11.68 7.19001C13.3833 6.33334 15.7767 6.56501 17.3033 7.96001L18.2817 8.85168L13.8717 13.005C12.0833 14.7917 11.7983 17.6167 13.2083 19.5683C14.075 20.7733 15.54 21.6667 17.2817 21.6667C18.6033 21.6667 19.8717 21.1467 20.7883 20.2283L22.465 18.6233L33.0367 26.5517L20.6667 35.8017L6.22166 25H0.666656V28.3333H5.11166L20.6667 39.965L36.2217 28.3333H40.6667V25H36.5217L24.905 16.2883L27.7183 13.595L25.4133 11.1867L18.4583 17.845C18.1117 18.1917 17.64 18.37 17.145 18.3283C16.6483 18.2883 16.2117 18.0367 15.9133 17.62C15.4567 16.9867 15.5967 15.995 16.1933 15.3967L24.0317 8.01668Z" fill="#10C78F"/>
</g>
<defs>
<clipPath id="clip0_69_1849">
<rect width="40" height="40" fill="white" transform="translate(0.666656)"/>
</clipPath>
</defs>
</svg>
