<svg width="40" height="40" viewBox="0 0 40 40" fill="none" xmlns="http://www.w3.org/2000/svg">
<g clip-path="url(#clip0_69_1823)">
<path d="M23.075 28.7783L17.6383 34.215C16.0598 35.7513 13.94 36.6043 11.7374 36.5895C9.53479 36.5748 7.42655 35.6934 5.86882 34.1361C4.31109 32.5788 3.42913 30.4708 3.41375 28.2682C3.39837 26.0656 4.25081 23.9455 5.78664 22.3667L11.2233 16.925C11.5358 16.6123 11.7113 16.1882 11.7111 15.7461C11.711 15.3039 11.5352 14.88 11.2225 14.5675C10.9097 14.255 10.4857 14.0795 10.0436 14.0797C9.60143 14.0798 9.17749 14.2556 8.86497 14.5683L3.42997 20.01C1.23376 22.2073 0.000378614 25.1871 0.00116004 28.2938C0.00194146 31.4005 1.23682 34.3796 3.43414 36.5758C5.63146 38.772 8.61122 40.0054 11.7179 40.0046C14.8246 40.0039 17.8038 38.769 20 36.5717L25.4366 31.135C25.7402 30.8207 25.9082 30.3996 25.9044 29.9627C25.9006 29.5257 25.7254 29.1076 25.4163 28.7986C25.1073 28.4896 24.6893 28.3143 24.2523 28.3105C23.8153 28.3067 23.3943 28.4747 23.08 28.7783H23.075Z" fill="#10C78F"/>
<path d="M36.5733 3.43498C35.4888 2.343 34.1984 1.47711 32.7768 0.887473C31.3552 0.297836 29.8307 -0.00382179 28.2917 -1.99672e-05C26.7535 -0.00410618 25.2297 0.296777 23.8085 0.885232C22.3872 1.47369 21.0968 2.33804 20.0117 3.42831L14.5667 8.86665C14.2539 9.17916 14.0782 9.60311 14.078 10.0452C14.0778 10.4873 14.2533 10.9114 14.5658 11.2241C14.8784 11.5369 15.3023 11.7127 15.7444 11.7128C16.1865 11.713 16.6106 11.5375 16.9233 11.225L22.365 5.78831C23.1409 5.00773 24.064 4.38882 25.0807 3.96741C26.0975 3.54601 27.1877 3.33048 28.2883 3.33331C29.9454 3.33386 31.5652 3.8257 32.9428 4.74665C34.3204 5.66759 35.3941 6.97631 36.0281 8.50735C36.662 10.0384 36.8278 11.723 36.5045 13.3483C36.1812 14.9735 35.3833 16.4665 34.2117 17.6383L28.775 23.075C28.4623 23.3877 28.2866 23.8119 28.2866 24.2541C28.2866 24.6964 28.4623 25.1206 28.775 25.4333C29.0877 25.746 29.5119 25.9217 29.9542 25.9217C30.3964 25.9217 30.8206 25.746 31.1333 25.4333L36.57 20C38.7634 17.8018 39.9955 14.8235 39.9962 11.7182C39.9968 8.61285 38.7659 5.63404 36.5733 3.43498Z" fill="#10C78F"/>
<path d="M23.8217 13.8217L13.8217 23.8217C13.6625 23.9754 13.5355 24.1593 13.4482 24.3627C13.3608 24.566 13.3149 24.7847 13.3129 25.006C13.311 25.2273 13.3532 25.4468 13.437 25.6516C13.5208 25.8564 13.6445 26.0425 13.801 26.199C13.9575 26.3555 14.1436 26.4792 14.3484 26.563C14.5533 26.6468 14.7727 26.689 14.994 26.6871C15.2153 26.6852 15.434 26.6392 15.6374 26.5518C15.8407 26.4645 16.0246 26.3375 16.1783 26.1783L26.1783 16.1783C26.4819 15.864 26.6499 15.443 26.6461 15.006C26.6423 14.569 26.4671 14.151 26.158 13.842C25.849 13.533 25.431 13.3577 24.994 13.3539C24.557 13.3501 24.136 13.5181 23.8217 13.8217Z" fill="#10C78F"/>
</g>
<defs>
<clipPath id="clip0_69_1823">
<rect width="40" height="40" fill="white"/>
</clipPath>
</defs>
</svg>
