<svg width="41" height="40" viewBox="0 0 41 40" fill="none" xmlns="http://www.w3.org/2000/svg">
<g clip-path="url(#clip0_69_1837)">
<path d="M38.43 1.90336C36.615 0.086697 33.9917 -0.478303 31.5367 0.446697L4.21337 11.77C0.986704 12.985 -0.00996262 15.9967 0.435037 18.44C0.881704 20.8867 2.87504 23.3534 6.32504 23.3534H16.9567V34.01C16.9567 37.4584 19.4234 39.4534 21.8684 39.8967C22.2334 39.9634 22.61 39.9984 22.9917 39.9984C25.1734 39.9984 27.505 38.875 28.5234 36.1734L39.9067 8.74503C40.8134 6.3417 40.2484 3.71836 38.43 1.90336ZM36.8067 7.51836L25.4234 34.9467C24.8467 36.4717 23.515 36.81 22.4667 36.62C21.4134 36.4284 20.2884 35.6417 20.2884 34.0117V21.6884C20.2884 20.7667 19.5434 20.0217 18.6217 20.0217H6.32504C4.69337 20.0217 3.9067 18.8967 3.71504 17.8434C3.52504 16.7917 3.86337 15.4617 5.44004 14.8684L32.7634 3.54503C33.14 3.40336 33.5217 3.33336 33.8967 3.33336C34.6984 3.33336 35.4667 3.6517 36.075 4.26003C36.9667 5.1517 37.2317 6.39003 36.8067 7.51836Z" fill="#10C78F"/>
</g>
<defs>
<clipPath id="clip0_69_1837">
<rect width="40" height="40" fill="white" transform="translate(0.333374)"/>
</clipPath>
</defs>
</svg>
