<svg width="41" height="40" viewBox="0 0 41 40" fill="none" xmlns="http://www.w3.org/2000/svg">
<g clip-path="url(#clip0_69_1830)">
<path d="M20.58 40.015L19.99 39.7533C19.3333 39.465 3.99998 32.54 3.99998 20V9.12668C4.00057 8.0803 4.33129 7.06078 4.94505 6.2133C5.55881 5.36583 6.42432 4.73361 7.41832 4.40668L20.6667 0.0150146L33.915 4.40668C34.909 4.73361 35.7745 5.36583 36.3883 6.2133C37.002 7.06078 37.3327 8.0803 37.3333 9.12668V20C37.3333 34.295 21.8533 39.5917 21.1933 39.8117L20.58 40.015ZM20.6667 3.51001L8.47332 7.55335C8.14156 7.66171 7.8526 7.87227 7.64783 8.15489C7.44305 8.43751 7.33296 8.77767 7.33332 9.12668V20C7.33332 29.1567 18.0667 35.0967 20.745 36.435C23.4183 35.36 34 30.4383 34 20V9.12668C34.0003 8.77767 33.8903 8.43751 33.6855 8.15489C33.4807 7.87227 33.1917 7.66171 32.86 7.55335L20.6667 3.51001Z" fill="#10C78F"/>
<path d="M19.185 24.2367H19.13C18.7081 24.2302 18.292 24.1383 17.9067 23.9664C17.5214 23.7945 17.1749 23.5463 16.8883 23.2367L13.045 19.2367L15.4466 16.9334L19.1867 20.8334L27.8216 12.1984L30.1783 14.555L21.41 23.3234C21.1179 23.6152 20.7709 23.8461 20.389 24.0029C20.0071 24.1597 19.5978 24.2392 19.185 24.2367Z" fill="#10C78F"/>
</g>
<defs>
<clipPath id="clip0_69_1830">
<rect width="40" height="40" fill="white" transform="translate(0.666656)"/>
</clipPath>
</defs>
</svg>
