<svg width="41" height="40" viewBox="0 0 41 40" fill="none" xmlns="http://www.w3.org/2000/svg">
<g clip-path="url(#clip0_69_1854)">
<path d="M9.50004 11.6667C12.7167 11.6667 15.3334 9.05 15.3334 5.83333C15.3334 2.61667 12.7167 0 9.50004 0C6.28337 0 3.66671 2.61667 3.66671 5.83333C3.66671 9.05 6.28337 11.6667 9.50004 11.6667ZM9.50004 3.33333C10.8784 3.33333 12 4.455 12 5.83333C12 7.21167 10.8784 8.33333 9.50004 8.33333C8.12171 8.33333 7.00004 7.21167 7.00004 5.83333C7.00004 4.455 8.12171 3.33333 9.50004 3.33333ZM8.66671 16.6667C5.91004 16.6667 3.66671 18.91 3.66671 21.6667C3.66671 22.5883 2.92004 23.3333 2.00004 23.3333C1.08004 23.3333 0.333374 22.5883 0.333374 21.6667C0.333374 17.0717 4.07171 13.3333 8.66671 13.3333C9.58671 13.3333 10.3334 14.0783 10.3334 15C10.3334 15.9217 9.58671 16.6667 8.66671 16.6667ZM20.3334 28.3333C20.3334 29.255 19.5867 30 18.6667 30H17C14.2434 30 12 32.2433 12 35C12 35.9217 11.2534 36.6667 10.3334 36.6667C9.41337 36.6667 8.66671 35.9217 8.66671 35C8.66671 30.405 12.405 26.6667 17 26.6667H18.6667C19.5867 26.6667 20.3334 27.4117 20.3334 28.3333ZM26.1667 11.6667C29.3834 11.6667 32 9.05 32 5.83333C32 2.61667 29.3834 0 26.1667 0C22.95 0 20.3334 2.61667 20.3334 5.83333C20.3334 9.05 22.95 11.6667 26.1667 11.6667ZM26.1667 3.33333C27.545 3.33333 28.6667 4.455 28.6667 5.83333C28.6667 7.21167 27.545 8.33333 26.1667 8.33333C24.7884 8.33333 23.6667 7.21167 23.6667 5.83333C23.6667 4.455 24.7884 3.33333 26.1667 3.33333ZM27 13.3333C29.965 13.3333 32.7317 14.93 34.2184 17.4983C34.6784 18.2967 34.4067 19.315 33.61 19.775C33.3484 19.9283 33.06 20 32.7767 20C32.2017 20 31.6417 19.7017 31.3317 19.1683C30.44 17.625 28.78 16.6667 27 16.6667C26.08 16.6667 25.3334 15.9217 25.3334 15C25.3334 14.0783 26.08 13.3333 27 13.3333ZM40.3334 31.6667C40.3334 32.5883 39.5867 33.3333 38.6667 33.3333H33.6667V38.3333C33.6667 39.255 32.92 40 32 40C31.08 40 30.3334 39.255 30.3334 38.3333V33.3333H25.3334C24.4134 33.3333 23.6667 32.5883 23.6667 31.6667C23.6667 30.745 24.4134 30 25.3334 30H30.3334V25C30.3334 24.0783 31.08 23.3333 32 23.3333C32.92 23.3333 33.6667 24.0783 33.6667 25V30H38.6667C39.5867 30 40.3334 30.745 40.3334 31.6667ZM17.8334 13.3333C14.6167 13.3333 12 15.95 12 19.1667C12 22.3833 14.6167 25 17.8334 25C21.05 25 23.6667 22.3833 23.6667 19.1667C23.6667 15.95 21.05 13.3333 17.8334 13.3333ZM17.8334 21.6667C16.455 21.6667 15.3334 20.545 15.3334 19.1667C15.3334 17.7883 16.455 16.6667 17.8334 16.6667C19.2117 16.6667 20.3334 17.7883 20.3334 19.1667C20.3334 20.545 19.2117 21.6667 17.8334 21.6667Z" fill="#10C78F"/>
</g>
<defs>
<clipPath id="clip0_69_1854">
<rect width="40" height="40" fill="white" transform="translate(0.333374)"/>
</clipPath>
</defs>
</svg>
