<svg width="32" height="32" viewBox="0 0 32 32" fill="none" xmlns="http://www.w3.org/2000/svg">
<g clip-path="url(#clip0_2001_2803)">
<path d="M2.99391 28.717L0.400144 28.717L0.400146 2.7793L2.99391 2.7793L2.99391 28.717ZM8.18145 2.7793L5.58768 2.7793L5.58768 28.717L8.18144 28.717L8.18145 2.7793ZM27.6347 2.7793L25.0409 2.7793L25.0409 28.717L27.6347 28.717L27.6347 2.7793ZM17.2596 2.7793L14.6659 2.7793L14.6659 28.717L17.2596 28.717L17.2596 2.7793ZM13.369 2.7793L9.47833 2.7793L9.47833 28.717L13.369 28.717L13.369 2.7793ZM23.744 2.7793L19.8534 2.7793L19.8534 28.717L23.744 28.717L23.744 2.7793ZM31.5253 2.7793L28.9316 2.7793L28.9316 28.717L31.5253 28.717L31.5253 2.7793Z" fill="#022C2A"/>
</g>
<defs>
<clipPath id="clip0_2001_2803">
<rect width="31.1252" height="31.1252" fill="white" transform="translate(0.400146 0.185547)"/>
</clipPath>
</defs>
</svg>
