<svg width="33" height="33" viewBox="0 0 33 33" fill="none" xmlns="http://www.w3.org/2000/svg">
<g clip-path="url(#clip0_2001_2788)">
<path d="M8.03297 23.0327C9.10734 23.0327 9.9783 22.1618 9.9783 21.0874C9.9783 20.013 9.10734 19.1421 8.03297 19.1421C6.9586 19.1421 6.08765 20.013 6.08765 21.0874C6.08765 22.1618 6.9586 23.0327 8.03297 23.0327Z" fill="#022C2A"/>
<path d="M25.5409 4.87646H7.38456C5.66542 4.87852 4.01728 5.56236 2.80166 6.77798C1.58604 7.9936 0.902206 9.64174 0.900146 11.3609L0.900146 21.7359C0.902206 23.4551 1.58604 25.1032 2.80166 26.3188C4.01728 27.5345 5.66542 28.2183 7.38456 28.2204H25.5409C27.2601 28.2183 28.9082 27.5345 30.1238 26.3188C31.3394 25.1032 32.0233 23.4551 32.0253 21.7359V11.3609C32.0233 9.64174 31.3394 7.9936 30.1238 6.77798C28.9082 5.56236 27.2601 4.87852 25.5409 4.87646ZM7.38456 7.47023H25.5409C26.5728 7.47023 27.5624 7.88014 28.292 8.60978C29.0217 9.33941 29.4316 10.329 29.4316 11.3609H3.49391C3.49391 10.329 3.90382 9.33941 4.63346 8.60978C5.3631 7.88014 6.3527 7.47023 7.38456 7.47023ZM25.5409 25.6266H7.38456C6.3527 25.6266 5.3631 25.2167 4.63346 24.4871C3.90382 23.7574 3.49391 22.7678 3.49391 21.7359V13.9546H29.4316V21.7359C29.4316 22.7678 29.0217 23.7574 28.292 24.4871C27.5624 25.2167 26.5728 25.6266 25.5409 25.6266Z" fill="#022C2A"/>
</g>
<defs>
<clipPath id="clip0_2001_2788">
<rect width="31.1252" height="31.1252" fill="white" transform="translate(0.900146 0.98584)"/>
</clipPath>
</defs>
</svg>
