<svg width="26" height="11" viewBox="0 0 26 11" fill="none" xmlns="http://www.w3.org/2000/svg">
<path d="M16.5054 5.08664C16.5722 4.53628 16.7761 4.07585 17.1321 3.71254C17.5697 3.2629 18.2446 3.03988 19.1605 3.03988C19.9169 3.03988 20.5065 3.18376 20.9367 3.46794C21.3631 3.75211 21.6227 4.08664 21.7117 4.47513H25.6794C25.5199 3.02909 24.8821 1.92117 23.7623 1.15499C22.6424 0.388798 21.1109 0.00390625 19.1605 0.00390625C17.0617 0.00390625 15.4449 0.467935 14.3028 1.3924C13.8801 1.73772 13.5352 2.14419 13.2682 2.60822C13.665 4.00391 14.9554 5.03268 16.5054 5.08664Z" fill="#EFFFFA"/>
<path d="M20.9365 7.52557C20.5101 7.81334 19.9168 7.96082 19.1603 7.96082C18.2444 7.96082 17.5695 7.73421 17.132 7.28097C16.7834 6.91766 16.5795 6.46083 16.509 5.91406C14.9627 5.96802 13.6723 6.9932 13.2755 8.38529C13.5425 8.85291 13.8836 9.25939 14.3064 9.60471C15.4448 10.5364 17.0652 11.0004 19.164 11.0004C21.1145 11.0004 22.646 10.6155 23.7658 9.84212C24.8857 9.06874 25.5235 7.95723 25.6829 6.50039H21.7152C21.6262 6.89608 21.3666 7.2378 20.9402 7.52917L20.9365 7.52557Z" fill="#EFFFFA"/>
<path d="M8.90729 5.91367C8.85167 6.23741 8.75526 6.5036 8.61064 6.69424C8.37332 7.00719 8.08409 7.20144 7.74665 7.27338C7.40921 7.34532 6.97907 7.3813 6.46364 7.3813H3.92728V3.03957H6.46364C6.97907 3.03957 7.40921 3.07554 7.74665 3.14748C8.08409 3.21942 8.37332 3.41367 8.61064 3.72662C8.83313 4.01799 8.94808 4.47482 8.96292 5.08273C10.5685 5.00719 11.8923 3.8813 12.2112 2.39568C12.1964 2.3705 12.1853 2.34173 12.1704 2.31655C11.7181 1.53597 11.121 0.953237 10.3794 0.571943C9.63779 0.190648 8.82942 0 7.9543 0H0.196899V10.4209H7.9543C8.82942 10.4209 9.63779 10.2302 10.3794 9.84892C11.084 9.48561 11.655 8.93525 12.1 8.21223C11.6439 6.90648 10.398 5.96403 8.911 5.91367H8.90729Z" fill="#EFFFFA"/>
</svg>
