<svg width="196" height="32" viewBox="0 0 196 32" fill="none" xmlns="http://www.w3.org/2000/svg">
<g clip-path="url(#clip0_69_2126)">
<path d="M15.38 31.2159C10.6418 31.2159 6.78575 27.299 6.78575 22.4859V20.8429H10.1529V22.4859C10.1529 25.4133 12.4981 27.7956 15.38 27.7956C18.262 27.7956 20.6072 25.4133 20.6072 22.4859V17.3629H6.78575V15.5743C6.78575 10.7613 10.6418 6.84434 15.38 6.84434C19.486 6.84434 22.9267 9.78296 23.7758 13.6962C25.8711 13.024 27.3929 11.0301 27.3929 8.68145C27.3929 5.7839 25.0698 3.42404 22.2173 3.42404H3.36714V20.8429H0V0H22.2136C26.9261 0 30.7601 3.89452 30.7601 8.68145C30.7601 12.856 27.8451 16.351 23.9743 17.1762V22.4859C23.9743 27.299 20.1183 31.2159 15.38 31.2159ZM10.4065 13.9389H20.3536C19.6735 11.8068 17.6995 10.2646 15.38 10.2646C13.0605 10.2646 11.0866 11.8105 10.4065 13.9389Z" fill="#2CEAB0"/>
<path d="M16.9386 20.8391H13.52V24.3117H16.9386V20.8391Z" fill="#2CEAB0"/>
<path d="M36.7849 25.5477V4.23804H44.8462C46.743 4.23804 48.3126 4.52555 49.5514 5.10431C50.7902 5.68308 51.7091 6.49335 52.3083 7.53885C52.9075 8.58436 53.2089 9.81657 53.2089 11.2392C53.2089 12.6618 52.9112 13.894 52.3083 14.9396C51.7091 15.9851 50.7902 16.7953 49.5514 17.3741C48.3126 17.9529 46.743 18.2404 44.8462 18.2404H41.2512V25.5477H36.7849ZM41.2475 14.4653H44.3941C45.9931 14.4653 47.1142 14.1928 47.7649 13.6439C48.4155 13.095 48.739 12.2959 48.739 11.2392C48.739 10.1825 48.4155 9.40957 47.7649 8.84947C47.1142 8.29311 45.9931 8.01307 44.3941 8.01307H41.2475V14.4653Z" fill="#EFFFFA"/>
<path d="M60.2483 25.9099C59.1088 25.9099 58.142 25.6933 57.3406 25.2565C56.543 24.8196 55.9328 24.2184 55.5137 23.4455C55.0947 22.6726 54.8851 21.8026 54.8851 20.828C54.8851 19.2037 55.3593 17.9865 56.3077 17.1762C57.2561 16.3659 58.6787 15.9589 60.5791 15.9589H65.3137V15.1972C65.3137 14.1405 65.0785 13.4012 64.6079 12.9755C64.1374 12.5498 63.3949 12.337 62.3767 12.337C61.4761 12.337 60.8291 12.4938 60.4284 12.8075C60.0277 13.1211 59.7998 13.5132 59.7373 13.9799H55.7821C55.8409 13.0464 56.1349 12.21 56.668 11.467C57.1973 10.7276 57.9582 10.1377 58.947 9.70081C59.9358 9.26393 61.1305 9.04736 62.5274 9.04736C63.9242 9.04736 65.0711 9.249 66.0783 9.656C67.0855 10.063 67.8722 10.7164 68.4309 11.6201C68.9896 12.5237 69.269 13.7372 69.269 15.2569V21.4366C69.269 22.288 69.2837 23.0348 69.3131 23.6733C69.3425 24.3118 69.3977 24.9353 69.4785 25.544H65.7916C65.7107 25.0959 65.6666 24.7561 65.6556 24.5246C65.6445 24.2931 65.6409 23.9421 65.6409 23.4754C65.2218 24.1251 64.5602 24.6926 63.6632 25.1818C62.7626 25.6672 61.6268 25.9136 60.2483 25.9136V25.9099ZM61.4761 22.807C62.1157 22.807 62.7295 22.6912 63.3177 22.456C63.9058 22.2245 64.3874 21.8586 64.755 21.3582C65.1226 20.8616 65.31 20.2268 65.31 19.4576V18.6959H61.3253C60.5644 18.6959 59.9726 18.8751 59.5425 19.2299C59.1124 19.5846 58.8992 20.0663 58.8992 20.6749C58.8992 21.3246 59.1198 21.8436 59.5572 22.2282C59.9947 22.6128 60.6343 22.807 61.4761 22.807Z" fill="#EFFFFA"/>
<path d="M79.6057 32.0001C77.9258 32.0001 76.5877 31.791 75.5916 31.3766C74.5917 30.9584 73.8565 30.3871 73.3897 29.6552C72.9192 28.9234 72.6435 28.0608 72.5663 27.0676H76.5804C76.7017 27.4932 76.97 27.8928 77.3891 28.2699C77.8081 28.6433 78.547 28.8337 79.6057 28.8337C80.9437 28.8337 81.9436 28.5089 82.6016 27.8592C83.2595 27.2095 83.5904 26.2349 83.5904 24.9355V22.9864C83.0904 23.778 82.4214 24.4127 81.5833 24.8869C80.7452 25.3649 79.7858 25.6039 78.7051 25.6039C77.3266 25.6039 76.1319 25.2977 75.1247 24.689C74.1138 24.0804 73.3382 23.1731 72.7868 21.9633C72.2355 20.7572 71.9634 19.2599 71.9634 17.4713V16.8627C71.9634 15.1787 72.2391 13.756 72.7868 12.6022C73.3346 11.4447 74.1212 10.5635 75.1394 9.95486C76.1577 9.34622 77.345 9.04004 78.7051 9.04004C80.0652 9.04004 81.1128 9.31262 81.973 9.86151C82.8331 10.4104 83.4617 11.0489 83.8624 11.7808V9.40597H87.5199V24.6256C87.5199 27.019 86.8693 28.8449 85.5717 30.1033C84.2741 31.3616 82.2854 31.9889 79.6094 31.9889L79.6057 32.0001ZM79.6388 22.1985C80.4364 22.1985 81.1312 22.0529 81.723 21.7579C82.3112 21.4629 82.7706 21.0036 83.1015 20.3726C83.4323 19.7453 83.5977 18.9836 83.5977 18.0911V16.2652C83.5977 15.4139 83.4286 14.7119 83.0868 14.1668C82.7486 13.6179 82.2781 13.1997 81.6789 12.9047C81.0797 12.6097 80.3997 12.4641 79.6424 12.4641C78.5617 12.4641 77.6832 12.8337 77.0068 13.5768C76.3268 14.3161 75.9886 15.4176 75.9886 16.8813V17.49C75.9886 19.0545 76.3378 20.2307 77.0362 21.0223C77.7346 21.8139 78.6058 22.2097 79.6424 22.2097L79.6388 22.1985Z" fill="#EFFFFA"/>
<path d="M96.5995 25.91C94.7615 25.91 93.372 25.3761 92.4347 24.3119C91.4936 23.2477 91.0268 21.5973 91.0268 19.3644V9.40967H94.9527V18.8155C94.9527 20.0328 95.1879 20.9513 95.6585 21.5712C96.129 22.191 96.923 22.5009 98.0404 22.5009C98.8381 22.5009 99.4851 22.3292 99.974 21.9819C100.463 21.6384 100.827 21.1903 101.069 20.6414C101.308 20.0925 101.43 19.4839 101.43 18.8155V9.40967H105.385V25.5441H101.727V23.1394C101.349 23.8899 100.742 24.5397 99.9152 25.0885C99.0844 25.6374 97.9816 25.91 96.6032 25.91H96.5995Z" fill="#EFFFFA"/>
<path d="M116.166 25.9099C114.729 25.9099 113.406 25.6112 112.196 25.01C110.987 24.4126 110.024 23.4978 109.303 22.2693C108.583 21.0408 108.226 19.495 108.226 17.628V17.0194C108.226 15.2345 108.572 13.7521 109.259 12.576C109.95 11.3998 110.873 10.5148 112.031 9.92858C113.189 9.33861 114.468 9.04736 115.869 9.04736C118.365 9.04736 120.265 9.71574 121.563 11.0562C122.86 12.3967 123.511 14.3346 123.511 16.87V18.5764H112.274C112.314 19.5286 112.516 20.3052 112.887 20.9064C113.259 21.5038 113.733 21.9407 114.31 22.217C114.891 22.4896 115.508 22.6278 116.166 22.6278C117.185 22.6278 117.953 22.4747 118.475 22.1722C118.993 21.866 119.364 21.4217 119.585 20.8317H123.209C122.89 22.5157 122.099 23.7853 120.842 24.6366C119.585 25.488 118.026 25.9136 116.166 25.9136V25.9099ZM116.019 12.3332C115.398 12.3332 114.799 12.4341 114.222 12.6394C113.641 12.8411 113.182 13.2033 112.843 13.7185C112.505 14.2376 112.314 14.9209 112.274 15.7722H119.677C119.658 14.8574 119.482 14.1554 119.151 13.6551C118.82 13.1584 118.387 12.8149 117.846 12.6208C117.306 12.4266 116.696 12.3332 116.019 12.3332Z" fill="#EFFFFA"/>
<path d="M141.938 25.91C140.082 25.91 138.531 25.6449 137.292 25.1184C136.053 24.5919 135.108 23.8563 134.461 22.9117C133.811 21.967 133.458 20.8692 133.399 19.6071H137.895C138.053 20.3987 138.42 21.0073 138.99 21.433C139.56 21.8587 140.545 22.0715 141.942 22.0715C143.339 22.0715 144.416 21.8736 145.044 21.4778C145.673 21.082 145.989 20.5182 145.989 19.7901C145.989 19.1814 145.805 18.6848 145.434 18.2965C145.063 17.9119 144.5 17.5796 143.739 17.307C142.979 17.0344 141.99 16.773 140.773 16.5303C139.354 16.2465 138.137 15.8507 137.115 15.3429C136.097 14.8351 135.322 14.1443 134.792 13.2743C134.263 12.4006 133.998 11.2953 133.998 9.95483C133.998 8.71889 134.322 7.64724 134.972 6.74363C135.623 5.84001 136.542 5.13429 137.729 4.62647C138.917 4.11866 140.321 3.86475 141.938 3.86475C143.695 3.86475 145.14 4.11492 146.268 4.61154C147.397 5.10815 148.257 5.80267 148.845 6.69508C149.433 7.5875 149.779 8.64421 149.878 9.86148H145.412C145.25 9.12962 144.923 8.5882 144.423 8.23347C143.923 7.87875 143.096 7.69952 141.935 7.69952C140.773 7.69952 139.887 7.89368 139.328 8.27828C138.77 8.66288 138.49 9.1819 138.49 9.83161C138.49 10.6232 138.876 11.243 139.644 11.6874C140.413 12.1355 141.626 12.5201 143.287 12.8449C144.427 13.0689 145.441 13.3415 146.327 13.6664C147.217 13.9912 147.97 14.4132 148.588 14.9285C149.206 15.4475 149.676 16.071 149.996 16.7992C150.316 17.531 150.474 18.4122 150.474 19.4465C150.474 20.746 150.139 21.8811 149.47 22.8556C148.801 23.8302 147.831 24.5807 146.563 25.1072C145.294 25.6337 143.75 25.8988 141.931 25.8988L141.938 25.91Z" fill="#EFFFFA"/>
<path d="M158.362 25.9099C157.223 25.9099 156.256 25.6933 155.455 25.2565C154.657 24.8196 154.047 24.2184 153.628 23.4455C153.209 22.6726 152.999 21.8026 152.999 20.828C152.999 19.2037 153.473 17.9865 154.422 17.1762C155.37 16.3659 156.793 15.9589 158.693 15.9589H163.428V15.1972C163.428 14.1405 163.192 13.4012 162.722 12.9755C162.251 12.5498 161.509 12.337 160.491 12.337C159.59 12.337 158.943 12.4938 158.542 12.8075C158.142 13.1211 157.914 13.5132 157.851 13.9799H153.896C153.955 13.0464 154.249 12.21 154.782 11.467C155.311 10.7276 156.072 10.1377 157.061 9.70081C158.05 9.26393 159.244 9.04736 160.641 9.04736C162.038 9.04736 163.185 9.249 164.192 9.656C165.199 10.063 165.986 10.7164 166.545 11.6201C167.104 12.5237 167.383 13.7372 167.383 15.2569V21.4366C167.383 22.288 167.398 23.0348 167.427 23.6733C167.456 24.3118 167.512 24.9353 167.592 25.544H163.906C163.825 25.0959 163.781 24.7561 163.77 24.5246C163.758 24.2931 163.755 23.9421 163.755 23.4754C163.336 24.1251 162.674 24.6926 161.777 25.1818C160.877 25.6672 159.741 25.9136 158.362 25.9136V25.9099ZM159.59 22.807C160.23 22.807 160.843 22.6912 161.432 22.456C162.02 22.2245 162.501 21.8586 162.869 21.3582C163.237 20.8616 163.424 20.2268 163.424 19.4576V18.6959H159.439C158.678 18.6959 158.087 18.8751 157.656 19.2299C157.226 19.5846 157.013 20.0663 157.013 20.6749C157.013 21.3246 157.234 21.8436 157.671 22.2282C158.109 22.6128 158.748 22.807 159.59 22.807Z" fill="#EFFFFA"/>
<path d="M171.757 25.5478V12.7628H169.78V9.4134H171.757V8.80477C171.757 7.77046 171.937 6.90418 172.298 6.2022C172.658 5.50022 173.25 4.97 174.08 4.60407C174.908 4.23814 176.025 4.05518 177.422 4.05518C177.723 4.05518 178.095 4.05891 178.547 4.07011C178.995 4.08131 179.37 4.10745 179.672 4.14479V7.55389C179.37 7.51282 179.047 7.48668 178.697 7.47921C178.348 7.46801 178.025 7.46428 177.723 7.46428C176.962 7.46428 176.433 7.59123 176.135 7.84514C175.838 8.09905 175.687 8.52099 175.687 9.10722V9.4134H179.374V12.7628H175.687V25.5478H171.761H171.757Z" fill="#EFFFFA"/>
<path d="M188.659 25.9099C187.222 25.9099 185.899 25.6112 184.689 25.01C183.48 24.4126 182.517 23.4978 181.796 22.2693C181.076 21.0408 180.719 19.495 180.719 17.628V17.0194C180.719 15.2345 181.065 13.7521 181.752 12.576C182.443 11.3998 183.366 10.5148 184.524 9.92858C185.682 9.33861 186.961 9.04736 188.361 9.04736C190.857 9.04736 192.758 9.71574 194.055 11.0562C195.353 12.3967 196.004 14.3346 196.004 16.87V18.5764H184.766C184.807 19.5286 185.009 20.3052 185.38 20.9064C185.752 21.5038 186.226 21.9407 186.803 22.217C187.384 22.4896 188.001 22.6278 188.659 22.6278C189.677 22.6278 190.446 22.4747 190.968 22.1722C191.486 21.866 191.857 21.4217 192.078 20.8317H195.702C195.382 22.5157 194.592 23.7853 193.335 24.6366C192.078 25.488 190.519 25.9136 188.659 25.9136V25.9099ZM188.508 12.3332C187.887 12.3332 187.288 12.4341 186.711 12.6394C186.13 12.8411 185.671 13.2033 185.332 13.7185C184.994 14.2376 184.803 14.9209 184.763 15.7722H192.166C192.148 14.8574 191.971 14.1554 191.64 13.6551C191.31 13.1584 190.876 12.8149 190.335 12.6208C189.795 12.4266 189.185 12.3332 188.508 12.3332Z" fill="#EFFFFA"/>
</g>
<defs>
<clipPath id="clip0_69_2126">
<rect width="196" height="32" fill="white"/>
</clipPath>
</defs>
</svg>
