<svg width="28" height="28" viewBox="0 0 28 28" fill="none" xmlns="http://www.w3.org/2000/svg">
<path d="M21.8032 20.8739C20.7512 20.8739 19.7639 20.48 19.0194 19.7553L15.0055 15.848C14.7303 15.5802 14.2286 15.5802 13.9534 15.848L9.92334 19.771C9.17883 20.4958 8.19153 20.8896 7.1395 20.8896H6.34643L11.4447 25.8525C13.0309 27.3965 15.6205 27.3965 17.2066 25.8525L22.3211 20.8739H21.8032Z" fill="#2CEAB0"/>
<path d="M7.12331 7.0408C8.17535 7.0408 9.16264 7.43468 9.90715 8.15942L13.9372 12.0825C14.2286 12.366 14.6979 12.366 14.9893 12.0825L19.0194 8.17517C19.7639 7.45044 20.7512 7.05656 21.8032 7.05656H22.2888L17.1743 2.07793C15.5881 0.53392 12.9985 0.53392 11.4124 2.07793L6.31406 7.0408H7.12331Z" fill="#2CEAB0"/>
<path d="M26.5131 11.1687L23.4217 8.1595C23.357 8.19101 23.2761 8.20676 23.1951 8.20676H21.787C21.0587 8.20676 20.3465 8.49036 19.8448 8.99452L15.8309 12.9018C15.4586 13.2642 14.9569 13.4532 14.4714 13.4532C13.9696 13.4532 13.4841 13.2642 13.1118 12.9018L9.08172 8.97877C8.56379 8.4746 7.85165 8.19101 7.1395 8.19101H5.4077C5.32677 8.19101 5.26203 8.17525 5.19729 8.14374L2.08975 11.1687C0.503611 12.7127 0.503611 15.2336 2.08975 16.7776L5.1811 19.7868C5.24584 19.7553 5.31059 19.7395 5.39152 19.7395H7.12331C7.85164 19.7395 8.56379 19.4559 9.06553 18.9518L13.0956 15.0287C13.8239 14.3198 15.1026 14.3198 15.8309 15.0287L19.8448 18.936C20.3627 19.4402 21.0749 19.7238 21.787 19.7238H23.1951C23.2761 19.7238 23.3408 19.7395 23.4217 19.7711L26.5131 16.7618C28.0992 15.2178 28.0992 12.7127 26.5131 11.1687Z" fill="#2CEAB0"/>
</svg>
