<svg width="24" height="25" viewBox="0 0 24 25" fill="none" xmlns="http://www.w3.org/2000/svg">
<g clip-path="url(#clip0_122_874)">
<path d="M17.507 14.807L17.498 14.882C15.299 13.786 15.069 13.64 14.785 14.066C14.588 14.361 14.014 15.03 13.841 15.228C13.666 15.423 13.492 15.438 13.195 15.303C12.895 15.153 11.932 14.838 10.792 13.818C9.904 13.023 9.308 12.048 9.132 11.748C8.839 11.242 9.452 11.17 10.01 10.114C10.11 9.90405 10.059 9.73905 9.985 9.59005C9.91 9.44005 9.313 7.97005 9.063 7.38405C8.823 6.80005 8.576 6.87405 8.391 6.87405C7.815 6.82405 7.394 6.83205 7.023 7.21805C5.409 8.99205 5.816 10.822 7.197 12.768C9.911 16.32 11.357 16.974 14.001 17.882C14.715 18.109 15.366 18.077 15.881 18.003C16.455 17.912 17.648 17.282 17.897 16.577C18.152 15.872 18.152 15.287 18.077 15.152C18.003 15.017 17.807 14.942 17.507 14.807Z" fill="#2CEAB0"/>
<path d="M20.52 3.94894C12.831 -3.48406 0.106 1.90694 0.101 12.3929C0.101 14.4889 0.65 16.5329 1.696 18.3379L0 24.4999L6.335 22.8479C14.24 27.1179 23.996 21.4479 24 12.3989C24 9.22295 22.76 6.23394 20.505 3.98794L20.52 3.94894ZM22.002 12.3659C21.996 19.9989 13.617 24.7659 6.99 20.8699L6.63 20.6559L2.88 21.6309L3.885 17.9859L3.646 17.6109C-0.478 11.0459 4.26 2.46594 12.072 2.46594C14.726 2.46594 17.217 3.50094 19.093 5.37594C20.968 7.23494 22.002 9.72594 22.002 12.3659Z" fill="#2CEAB0"/>
</g>
<defs>
<clipPath id="clip0_122_874">
<rect width="24" height="24" fill="white" transform="translate(0 0.5)"/>
</clipPath>
</defs>
</svg>
