<svg width="31" height="31" viewBox="0 0 31 31" fill="none" xmlns="http://www.w3.org/2000/svg">
<g clip-path="url(#clip0_69_1958)">
<path d="M29.0674 5.05103H25.1808C24.9318 5.05108 24.6883 5.12497 24.4813 5.26336C24.2742 5.40175 24.1128 5.59843 24.0175 5.82852C23.9222 6.05862 23.8973 6.3118 23.9458 6.55607C23.9944 6.80034 24.1143 7.02472 24.2904 7.20086L25.6581 8.56859L21.1419 13.0836C20.9019 13.3129 20.5827 13.4409 20.2508 13.4409C19.9189 13.4409 19.5997 13.3129 19.3598 13.0836L19.1457 12.8682C18.4261 12.1807 17.4691 11.797 16.4738 11.797C15.4785 11.797 14.5216 12.1807 13.8019 12.8682L7.37891 19.2913C7.14225 19.5286 7.00957 19.8502 7.01004 20.1854C7.01051 20.5205 7.1441 20.8418 7.38143 21.0784C7.61875 21.3151 7.94036 21.4477 8.27551 21.4473C8.61066 21.4468 8.93189 21.3132 9.16854 21.0759L15.5916 14.6528C15.8314 14.4232 16.1506 14.295 16.4826 14.295C16.8146 14.295 17.1339 14.4232 17.3737 14.6528L17.5878 14.8682C18.3077 15.5552 19.2645 15.9385 20.2596 15.9385C21.2547 15.9385 22.2116 15.5552 22.9315 14.8682L27.4478 10.3519L28.8155 11.7197C28.9922 11.8929 29.2161 12.0102 29.4591 12.057C29.7021 12.1038 29.9535 12.0779 30.1819 11.9826C30.4103 11.8874 30.6056 11.727 30.7433 11.5214C30.8811 11.3158 30.9552 11.0742 30.9565 10.8267V6.94016C30.9565 6.43913 30.7575 5.95862 30.4032 5.60434C30.0489 5.25006 29.5684 5.05103 29.0674 5.05103Z" fill="#022C2A"/>
<path d="M29.6971 27.7205H7.02754C6.02548 27.7205 5.06447 27.3224 4.35591 26.6139C3.64734 25.9053 3.24928 24.9443 3.24928 23.9422V1.30288C3.24928 0.968858 3.11659 0.64852 2.8804 0.412333C2.64422 0.176146 2.32388 0.043457 1.98986 0.043457C1.65584 0.043457 1.3355 0.176146 1.09931 0.412333C0.863127 0.64852 0.730438 0.968858 0.730438 1.30288L0.730438 23.9422C0.732438 25.6117 1.39652 27.2122 2.57703 28.3927C3.75753 29.5732 5.35806 30.2373 7.02754 30.2393H29.6971C30.0311 30.2393 30.3515 30.1066 30.5877 29.8704C30.8238 29.6343 30.9565 29.3139 30.9565 28.9799C30.9565 28.6459 30.8238 28.3255 30.5877 28.0894C30.3515 27.8532 30.0311 27.7205 29.6971 27.7205Z" fill="#022C2A"/>
</g>
<defs>
<clipPath id="clip0_69_1958">
<rect width="30.2261" height="30.2261" fill="white" transform="translate(0.730438 0.043457)"/>
</clipPath>
</defs>
</svg>
