<svg width="30" height="30" viewBox="0 0 30 30" fill="none" xmlns="http://www.w3.org/2000/svg">
<g clip-path="url(#clip0_69_1963)">
<path d="M22.5 15C22.5 15.69 21.94 16.25 21.25 16.25C20.56 16.25 20 15.69 20 15C20 14.31 20.56 13.75 21.25 13.75C21.94 13.75 22.5 14.31 22.5 15ZM8.75 6.25C9.44 6.25 10 5.69125 10 5C10 3.62125 11.1212 2.5 12.5 2.5C13.8787 2.5 15 3.62125 15 5C15 5.69125 15.56 6.25 16.25 6.25C16.94 6.25 17.5 5.69125 17.5 5C17.5 2.2425 15.2575 0 12.5 0C9.7425 0 7.5 2.2425 7.5 5C7.5 5.69125 8.06 6.25 8.75 6.25ZM30 16.25V18.75C30 20.1325 29.065 20.9738 28.04 21.1925C27.2137 23.26 25.7 25.0063 23.75 26.135V26.25C23.75 28.3175 22.0675 30 20 30C18.37 30 16.98 28.955 16.4637 27.5H13.535C13.0187 28.955 11.6287 30 9.99875 30C7.93125 30 6.24875 28.3175 6.24875 26.25V26.1512C2.955 24.2525 1.02125 20.68 1.27 16.8375C1.34875 15.615 1.6575 14.4537 2.15125 13.3925C0.879997 12.7912 -0.00250244 11.4975 -0.00250244 10C-0.00250244 7.9325 1.68 6.25 3.7475 6.25C4.4375 6.25 4.9975 6.80875 4.9975 7.5C4.9975 8.19125 4.4375 8.75 3.7475 8.75C3.0575 8.75 2.4975 9.31 2.4975 10C2.4975 10.6138 2.9425 11.125 3.52625 11.23C5.4275 8.95125 8.3425 7.5 11.58 7.5H18.2837C19.2 5.6525 20.9112 4.36 23.1925 3.8175C23.9312 3.64375 24.6962 3.81375 25.2937 4.285C25.9 4.765 26.2487 5.4825 26.2487 6.255V10.8988C27.0087 11.7625 27.6162 12.75 28.0387 13.8075C29.065 14.0262 30 14.8675 30 16.25ZM27.5 16.25H27.1325C26.58 16.25 26.0925 15.8862 25.935 15.3562C25.5925 14.2063 24.96 13.1362 24.1062 12.26C23.8775 12.0262 23.75 11.7125 23.75 11.3875V6.255C22.5312 6.545 20.9187 7.2925 20.295 9.17375C20.1187 9.7025 19.6037 10.0662 19.0575 10.0287C18.9725 10.025 11.5825 10.0013 11.5825 10.0013C7.45375 10.0013 4.02 13.075 3.76625 17C3.56625 20.0863 5.2425 22.94 8.0375 24.2688C8.47375 24.4763 8.75 24.9163 8.75 25.3975V26.2512C8.75 26.9412 9.31125 27.5012 10 27.5012C10.6887 27.5012 11.25 26.9412 11.25 26.2512C11.25 25.5612 11.81 25.0012 12.5 25.0012H17.5C18.19 25.0012 18.75 25.56 18.75 26.2512C18.75 26.9425 19.3112 27.5012 20 27.5012C20.6887 27.5012 21.25 26.9412 21.25 26.2512V25.3837C21.25 24.9025 21.5262 24.4638 21.9612 24.2563C23.8887 23.3363 25.3362 21.655 25.935 19.6462C26.0925 19.1162 26.58 18.7525 27.1325 18.7525H27.5V16.2525V16.25Z" fill="#10C78F"/>
</g>
<defs>
<clipPath id="clip0_69_1963">
<rect width="30" height="30" fill="white"/>
</clipPath>
</defs>
</svg>
