<svg width="30" height="30" viewBox="0 0 30 30" fill="none" xmlns="http://www.w3.org/2000/svg">
<g clip-path="url(#clip0_69_1954)">
<path d="M12.585 25C11.5682 24.999 10.5933 24.5946 9.87434 23.8757C9.15535 23.1567 8.75099 22.1818 8.75 21.165C8.75 20.8335 8.6183 20.5155 8.38388 20.2811C8.14946 20.0467 7.83152 19.915 7.5 19.915C7.16848 19.915 6.85053 20.0467 6.61611 20.2811C6.38169 20.5155 6.25 20.8335 6.25 21.165V21.25C6.25 21.2738 6.25 21.295 6.25 21.3187C6.29172 22.9716 6.97733 24.5428 8.1607 25.6974C9.34408 26.8521 10.9316 27.4989 12.585 27.5H13.75V28.75C13.75 29.0815 13.8817 29.3995 14.1161 29.6339C14.3505 29.8683 14.6685 30 15 30C15.3315 30 15.6495 29.8683 15.8839 29.6339C16.1183 29.3995 16.25 29.0815 16.25 28.75V27.5H17.415C18.9184 27.4984 20.3721 26.9622 21.5165 25.9873C22.6609 25.0123 23.4212 23.6622 23.6617 22.1782C23.9021 20.6942 23.607 19.1731 22.829 17.8867C22.051 16.6003 20.8409 15.6325 19.415 15.1562L16.25 14.1V5H17.415C18.4318 5.00099 19.4067 5.40536 20.1257 6.12434C20.8446 6.84333 21.249 7.8182 21.25 8.835C21.25 9.16652 21.3817 9.48446 21.6161 9.71888C21.8505 9.9533 22.1685 10.085 22.5 10.085C22.8315 10.085 23.1495 9.9533 23.3839 9.71888C23.6183 9.48446 23.75 9.16652 23.75 8.835V8.75C23.75 8.72625 23.75 8.705 23.75 8.68125C23.7083 7.02841 23.0227 5.45723 21.8393 4.30257C20.6559 3.14791 19.0684 2.5011 17.415 2.5H16.25V1.25C16.25 0.91848 16.1183 0.600536 15.8839 0.366116C15.6495 0.131695 15.3315 0 15 0C14.6685 0 14.3505 0.131695 14.1161 0.366116C13.8817 0.600536 13.75 0.91848 13.75 1.25V2.5H12.585C11.0816 2.50161 9.62786 3.03779 8.48349 4.01272C7.33912 4.98765 6.57876 6.33778 6.33832 7.82178C6.09787 9.30578 6.39301 10.8269 7.17099 12.1133C7.94897 13.3997 9.15907 14.3675 10.585 14.8438L13.75 15.9V25H12.585ZM11.3725 12.4738C10.5082 12.1861 9.77455 11.6002 9.30284 10.8209C8.83114 10.0417 8.6522 9.12 8.79808 8.22086C8.94395 7.32172 9.4051 6.50386 10.099 5.91372C10.7928 5.32357 11.6741 4.99966 12.585 5H13.75V13.2663L11.3725 12.4738ZM16.25 16.7338L18.625 17.5262C19.4891 17.8138 20.2226 18.3995 20.6943 19.1785C21.1661 19.9575 21.3452 20.8789 21.1996 21.7779C21.0541 22.6769 20.5934 23.4947 19.9 24.0851C19.2065 24.6754 18.3257 24.9997 17.415 25H16.25V16.7338Z" fill="#022C2A"/>
</g>
<defs>
<clipPath id="clip0_69_1954">
<rect width="30" height="30" fill="white" transform="matrix(-1 0 0 -1 30 30)"/>
</clipPath>
</defs>
</svg>
