<svg width="149" height="24" viewBox="0 0 149 24" fill="none" xmlns="http://www.w3.org/2000/svg">
<g clip-path="url(#clip0_69_2005)">
<path d="M-3.8147e-06 23.99H149V0.0098877H-3.8147e-06V23.99Z" fill="#EFFFFA"/>
<path fill-rule="evenodd" clip-rule="evenodd" d="M6.94772 8.99975L10.8878 11.4967L15.6204 8.50048L13.6503 7.248L16.2134 5.63034L21.7312 9.12643L12.665 14.8667L14.6356 16.1186L25.8791 8.99975L16.4134 3.00671L6.94772 8.99975ZM25.8791 14.9928L21.9312 12.4958L17.1981 15.4926L19.1687 16.7377L16.6057 18.3622L11.0879 14.8661L20.154 9.12586L18.1834 7.87452L6.94772 14.9928L16.4134 20.9864L25.8791 14.9928ZM25.8791 5.50367L23.9013 6.75557L21.9306 5.50367L25.8791 3.00671V5.50367ZM6.94772 18.4889L8.91777 17.237L10.8878 18.4889L6.94772 20.9864V18.4889ZM34.8263 17.9827C36.0628 17.9827 39.1371 17.8487 39.1371 14.817C39.1371 13.1709 38.5964 12.0245 36.5224 11.7786C38.1074 11.483 38.8998 10.4839 38.8998 9.10531C38.8998 6.55187 37.0704 6.00295 34.8408 6.00295H29.6636V17.9827H34.8263ZM127.743 17.9827C129.476 17.9827 131.224 17.7648 131.224 15.225C131.224 12.2921 126.75 12.5871 126.75 10.723C126.75 10.0479 127.187 9.68219 127.921 9.68219H130.32V8.16953H126.95C124.188 8.16953 123.506 9.35809 123.506 10.8913C123.506 13.8105 128.461 13.7403 128.461 15.3865C128.461 16.0478 128.084 16.498 127.321 16.498H123.773L121.144 8.17637H117.995L115.085 17.1029L113.256 13.2622C114.596 13.0299 115.13 12.2208 115.136 10.7435C115.136 9.06937 114.085 8.1758 112.463 8.1758H107.537V17.9822H110.226V9.68162H111.122C111.878 9.68162 112.537 10.2089 112.537 11.1726C112.537 11.9886 112.107 12.6642 111.418 12.6219L110.663 12.6294L113.114 17.9822H117.425L118.07 15.8082H120.855L121.491 17.9822L127.743 17.9827ZM120.447 14.3109H118.455L119.403 10.2939L120.447 14.3109ZM90.4574 18.2709C94.4792 18.2709 94.4792 15.7317 94.4792 13.1292C94.4792 10.4913 94.4792 7.97952 90.4574 7.97952C86.4356 7.97952 86.4356 10.4913 86.4356 13.1292C86.4356 15.7312 86.4356 18.2709 90.4574 18.2709ZM90.4574 16.7799C89.2798 16.7799 89.1242 15.6827 89.1242 13.1292C89.1242 10.5758 89.2804 9.47107 90.458 9.47107C91.6356 9.47107 91.7834 10.5752 91.7834 13.1286C91.7834 15.6821 91.6356 16.7799 90.4574 16.7799ZM77.6885 17.9827H81.6142C85.7321 17.9827 85.4581 14.5215 85.4581 13.0094C85.4581 9.94923 84.8657 8.14841 81.7103 8.14841H77.6885V17.9827ZM80.3104 9.67478H81.3696C82.814 9.67478 82.814 11.2719 82.814 13.0796C82.814 15.5486 82.5616 16.4918 81.3029 16.4918H80.3104V9.67478ZM101.175 12.756H101.827C103.086 12.756 103.486 13.4105 103.486 14.4656C103.486 16.1466 102.293 16.1602 101.76 16.1602H100.375V12.7771L101.175 12.756ZM100.375 10.9272V7.86711H101.916C102.76 7.86711 103.353 8.50732 103.353 9.39347C103.353 10.5546 102.59 10.913 102.049 10.913H101.176L100.375 10.9272ZM102.353 17.9896C103.59 17.9896 106.664 17.8561 106.664 14.817C106.664 13.1709 106.123 12.0314 104.056 11.7786C105.642 11.483 106.434 10.4839 106.434 9.10531C106.434 6.55187 104.597 6.00295 102.375 6.00295H97.1901V17.9896H102.353ZM142.06 17.9822V16.4986H138.994V8.1758H136.372V17.9816L142.06 17.9822ZM134.831 8.17637H132.201V17.9822H134.831V8.17637ZM70.8153 18.2703C74.8371 18.2703 74.8371 15.7243 74.8371 13.1075C74.8371 10.4559 74.8371 7.93786 70.8153 7.93786C66.8007 7.93786 66.8007 10.4559 66.8007 13.1075C66.8007 15.7243 66.8007 18.2703 70.8153 18.2703ZM70.8153 16.7793C69.6377 16.7793 69.4893 15.6684 69.4893 13.1075C69.4893 10.5398 69.6377 9.43569 70.8153 9.43569C71.9928 9.43569 72.1484 10.5404 72.1484 13.1075C72.1484 15.6684 71.9934 16.7793 70.8153 16.7793ZM44.8256 14.3035H42.8255L43.7736 10.2939L44.8256 14.3035ZM41.7963 17.9822L42.4482 15.8088H45.2329L45.8698 17.9827H48.6179L45.5147 8.17637H42.3743L39.2026 17.9822H41.7963ZM62.4166 18.2709C64.6978 18.2709 66.031 17.4127 66.031 14.7394H63.4313C63.4013 15.5274 63.3869 16.7793 62.4166 16.7793C61.3129 16.7793 61.1501 16.1397 61.1501 13.1075C61.1501 9.9635 61.4024 9.43569 62.3649 9.43569C63.0534 9.43569 63.3647 9.92812 63.3647 11.2645H65.9493C66.0454 9.11216 64.7868 7.93786 62.2982 7.93786C58.5948 7.93786 58.4909 10.1746 58.4909 13.1075C58.4909 16.0553 58.3948 18.2709 62.4166 18.2709ZM51.4621 17.9822V11.4476L54.3285 17.9822H57.4317V8.17637H55.1949V14.5146L52.4023 8.17637H49.2241V17.9822H51.4621ZM33.4709 12.7418H33.8783C35.4187 12.7418 35.9078 13.3888 35.9078 14.4513C35.9078 16.1254 34.4484 16.1397 33.7966 16.1397H32.8413V12.756L33.4709 12.7418ZM32.8413 10.9061V7.84599H33.9816C35.0186 7.84599 35.7444 8.49306 35.7444 9.37236C35.7444 10.533 34.8113 10.8987 34.145 10.8987H33.0708L32.8413 10.9061Z" fill="#003882"/>
</g>
<defs>
<clipPath id="clip0_69_2005">
<rect width="149" height="24" fill="white"/>
</clipPath>
</defs>
</svg>
