<svg width="120" height="26" viewBox="0 0 120 26" fill="none" xmlns="http://www.w3.org/2000/svg">
<g clip-path="url(#clip0_69_1993)">
<path d="M95.3748 18.9796L94.0798 18.4511C93.3289 18.1493 92.8886 17.8976 92.8886 17.4195C92.8886 16.6901 93.5619 16.5392 94.4424 16.5392C95.3229 16.5392 96.2295 16.6396 97.4726 17.0173C97.6279 16.187 97.6279 15.4071 97.4726 14.6777C96.6955 14.2751 95.2452 14.0738 93.9764 14.0738C91.4902 14.0738 89.5996 15.3821 89.5996 17.3441C89.5996 19.1051 90.3767 19.9858 92.5522 20.8411L93.5623 21.2437C94.5204 21.6209 94.8054 21.8473 94.8054 22.4512C94.8054 23.3569 93.8729 23.5074 93.0959 23.5074C91.8009 23.5074 90.817 23.2561 89.5739 22.8284C89.3666 23.5579 89.3666 24.514 89.5739 25.2688C90.6359 25.8224 92.0862 25.9983 93.6142 25.9983C96.0746 25.9983 98.0428 24.7403 98.0428 22.4762C98.042 20.6151 97.2134 19.7344 95.3748 18.9796ZM72.4026 23.2819C71.859 23.4328 71.4702 23.4578 71.03 23.4578C68.9064 23.4578 68.0774 22.0994 68.0774 20.1371C68.0774 17.9484 68.906 16.615 71.0038 16.615C71.6252 16.615 72.0139 16.6905 72.4022 16.7909V23.2819H72.4026ZM72.4026 11.5583V14.3005C71.8328 14.1496 71.2372 14.1246 70.7193 14.1246C67.1712 14.1246 64.7627 16.4391 64.7627 20.1371C64.7627 23.9108 67.1197 25.9987 70.797 25.9987C72.4803 25.9987 74.1379 25.7723 75.6139 25.2942V9.01742C74.7073 9.34461 73.7491 9.79728 72.9463 10.4262C72.5322 10.7534 72.4026 11.0802 72.4026 11.5583ZM59.9715 23.4324C59.79 23.4828 58.9872 23.5582 58.5988 23.5582C57.1223 23.5582 56.3199 23.1306 56.3199 22.124C56.3199 21.1178 57.1227 20.7152 58.5988 20.7152C59.091 20.7152 59.6608 20.7652 59.9715 20.7907V23.4324ZM58.029 14.0742C56.7598 14.0491 55.6463 14.2 54.5585 14.4514C54.3513 15.1558 54.3774 16.1874 54.5585 16.9168C55.9054 16.615 56.6563 16.5896 57.5111 16.5896C59.1686 16.5896 59.9715 17.244 59.9715 18.577V18.7028C59.4793 18.6524 58.8837 18.6024 58.4692 18.6024C55.7239 18.6024 53.3674 19.5585 53.3674 22.1244C53.3674 25.0175 55.4909 25.9987 58.5731 25.9987C60.0234 25.9987 61.6033 25.7473 63.0536 25.3197V18.8041C63.0532 15.6839 61.318 14.1496 58.029 14.0742ZM105.372 23.4324C103.766 23.4324 102.704 22.1995 102.704 20.0362C102.704 17.9734 103.559 16.64 105.397 16.64C106.175 16.64 106.718 16.7659 107.443 17.0427C107.651 16.3383 108.039 15.533 108.583 14.854C107.573 14.3509 106.589 14.0742 104.983 14.0742C101.435 14.0742 99.3889 16.5146 99.3889 20.0366C99.3889 23.6845 101.487 25.9987 105.113 25.9987C106.434 25.9987 107.651 25.7723 108.635 25.2438C108.194 24.6903 107.703 23.9359 107.418 23.0552C106.511 23.4074 106.123 23.4324 105.372 23.4324ZM80.5866 18.6778C80.8201 17.294 81.6744 16.4637 82.9694 16.4637C84.4197 16.4637 84.9895 17.4199 85.0414 18.6778H80.5866ZM83.0209 14.0742C79.5504 14.0742 77.4268 16.3383 77.4268 20.112C77.4268 23.8858 79.68 25.9987 83.5392 25.9987C84.8599 25.9987 86.2845 25.7723 87.1908 25.3447C87.3718 24.6149 87.3718 23.6591 87.1908 22.9297C85.9996 23.2565 84.9895 23.4578 83.8756 23.4578C82.0885 23.4578 80.8454 22.8038 80.5866 20.9673H87.8902C87.994 20.6906 88.0197 19.7598 88.0197 19.3826C88.0193 15.9861 86.0511 14.0742 83.0209 14.0742ZM114.358 23.4828C112.572 23.4828 112.027 22.074 112.027 20.0612C112.027 18.0989 112.572 16.5896 114.358 16.5896C116.197 16.5896 116.715 18.0489 116.715 20.0612C116.716 22.1748 116.12 23.4828 114.358 23.4828ZM114.358 14.0742C110.758 14.0742 108.739 16.4641 108.739 20.0616C108.739 23.7095 110.862 25.9987 114.358 25.9987C117.984 25.9987 120.004 23.6591 120.004 20.0616C120.004 16.4387 117.985 14.0742 114.358 14.0742ZM16.4127 16.7769L14.2159 18.0051V25.8689L16.5757 25.872C16.8079 25.8724 16.9962 25.6895 16.9962 25.4643V17.07C16.9962 16.7483 16.6763 16.631 16.4127 16.7769ZM13.226 5.53526C11.599 5.53526 9.82068 5.68067 8.06331 5.97072C9.84201 3.75274 12.6618 2.32203 15.8067 2.32203C18.1274 2.32203 20.4486 3.17185 22.0104 4.43643C22.2925 4.66432 22.5094 4.68543 22.7263 4.47786C22.9432 4.27069 22.9215 4.06311 22.6828 3.79378C20.6438 1.49253 17.6506 -0.062088 14.1149 6.48499e-05C9.49472 0.0833282 5.56871 2.92324 4.07211 6.86198C2.70549 7.27673 1.44753 7.77396 0.341275 8.37517C0.0374481 8.5413 -0.0708028 8.74848 0.0374482 8.9971C0.146102 9.22499 0.363005 9.30787 0.66643 9.22499C1.62097 8.95527 2.59684 8.72737 3.61617 8.52019C3.50752 9.03853 3.44273 9.57759 3.44273 10.1374C3.3558 13.7653 5.35141 17.2065 8.43153 19.093C8.73536 19.2798 8.99572 19.2798 9.16916 19.0515C9.34261 18.8236 9.32088 18.6164 9.06051 18.3882C7.10837 16.6881 6.02385 14.159 6.02385 11.6505C6.02385 10.386 6.28421 9.16284 6.78321 8.06401C7.80254 7.98114 8.9088 7.91899 10.1237 7.91899C18.0192 7.91899 24.678 10.4481 24.678 13.7649C24.678 15.4443 22.4873 17.1232 19.8844 18.2427C19.2554 18.5121 19.1902 18.6985 19.2771 18.9683C19.3637 19.2169 19.6458 19.3001 19.9713 19.1962C24.5267 17.7455 27.9755 15.3618 27.9755 12.48C27.9755 8.56202 21.4683 5.53526 13.226 5.53526ZM11.5418 19.8044V25.6093C11.5418 25.7547 11.663 25.8724 11.8127 25.8724H13.4751V18.4187L11.8155 19.3467C11.6461 19.4405 11.5418 19.5878 11.5418 19.8044ZM52.0981 14.225C50.5701 14.225 49.6896 14.8036 48.8607 15.8352C48.783 15.3071 48.6796 14.8794 48.4981 14.3509C48.1874 14.2504 47.6433 14.225 47.1773 14.225C46.7371 14.225 46.1673 14.2755 45.8823 14.3509V25.7469C46.2707 25.8478 46.9182 25.8728 47.488 25.8728C48.0317 25.8728 48.7572 25.8228 49.0937 25.7469V20.1871C49.0937 17.9734 50.2852 16.7909 51.8909 16.7909C52.1758 16.7909 52.6679 16.7909 52.9529 16.841C53.134 16.1115 53.1601 15.0549 53.0048 14.3255C52.8233 14.2751 52.3573 14.225 52.0981 14.225ZM37.4915 23.4578C37.1547 23.4578 36.6367 23.4578 36.2742 23.3319V17.0677C36.7144 16.841 37.3362 16.7155 38.139 16.7155C39.7446 16.7155 40.5994 17.7975 40.5994 19.8353C40.599 21.9735 39.5893 23.4578 37.4915 23.4578ZM38.6826 14.1246C37.7502 14.1246 36.844 14.3259 36.2742 14.6027V9.01742C35.3679 9.34461 34.4093 9.79728 33.6065 10.4262C33.192 10.753 33.0629 11.0802 33.0629 11.5583V25.3447C33.9176 25.6969 35.6528 25.9987 37.3104 25.9987C41.506 25.9987 43.9145 23.5082 43.9145 19.9107C43.9141 16.3383 42.205 14.1246 38.6826 14.1246Z" fill="#CC092F"/>
</g>
<defs>
<clipPath id="clip0_69_1993">
<rect width="120" height="26" fill="white"/>
</clipPath>
</defs>
</svg>
