<svg width="77" height="29" viewBox="0 0 77 29" fill="none" xmlns="http://www.w3.org/2000/svg">
<g clip-path="url(#clip0_69_2048)">
<path fill-rule="evenodd" clip-rule="evenodd" d="M12.0197 6.3497C12.9129 6.06038 13.8446 5.91573 14.784 5.91573C19.0113 5.91573 22.5379 8.8241 23.3387 12.6842L29.3216 11.5041C27.9587 4.94119 21.9681 0 14.7917 0C13.1439 0 11.5654 0.258861 10.087 0.738514L12.0197 6.3497Z" fill="#FFCA05"/>
<path fill-rule="evenodd" clip-rule="evenodd" d="M5.0666 25.3759L9.163 20.8992C7.3304 19.3308 6.1831 17.0467 6.1831 14.4962C6.1831 11.9456 7.3381 9.66157 9.163 8.10079L5.0666 3.62402C1.9635 6.28876 0 10.1717 0 14.5038C0 18.8283 1.9635 22.7188 5.0666 25.3759Z" fill="#00A4DF"/>
<path fill-rule="evenodd" clip-rule="evenodd" d="M23.3464 16.3158C22.5379 20.1759 19.0113 23.0842 14.7917 23.0842C13.8523 23.0842 12.9129 22.9396 12.0197 22.6503L10.0793 28.2691C11.5577 28.7487 13.1439 29.0076 14.7917 29.0076C21.9681 29.0076 27.951 24.074 29.3293 17.5111L23.3464 16.3158Z" fill="#EE4123"/>
<path fill-rule="evenodd" clip-rule="evenodd" d="M46.277 19.2622L46.0999 19.1557C45.6071 19.9399 44.8525 20.5794 43.89 20.9905C42.0651 21.7823 40.3711 21.5768 39.1545 20.5185L39.0467 20.686H39.039L36.9677 23.7695C37.4836 24.1273 38.038 24.4242 38.6155 24.6679C40.9101 25.6119 43.2509 25.5739 45.5609 24.5689C47.2318 23.8532 48.5408 22.7493 49.4417 21.3636L46.277 19.2622ZM39.8013 11.6563C37.8686 12.4786 36.8753 14.2754 37.0832 16.3843L45.2606 12.8897C43.8515 11.2528 42.0266 10.7122 39.8013 11.6563ZM34.3728 21.0514C34.1418 20.6708 33.9339 20.2748 33.7491 19.8637C32.802 17.6862 32.7635 15.4402 33.5566 13.278C34.4344 10.9102 36.1053 9.09055 38.269 8.16931C40.9871 7.00444 43.9978 7.23284 46.6004 8.77078C48.2559 9.71486 49.4263 11.169 50.3195 13.2323C50.435 13.4988 50.5351 13.7805 50.6275 14.0165L34.3728 21.0514ZM56.3178 3.62402V20.7621L59.0051 21.8432L57.4805 25.3759L54.516 24.1578C53.8538 23.8684 53.3995 23.4345 53.053 22.9396C52.7219 22.4371 52.4832 21.7443 52.4832 20.8154V3.62402H56.3178ZM63.2709 16.3996C63.2709 17.8004 63.8715 19.1328 64.9341 20.0541L62.1852 23.1071C60.2448 21.4017 59.1437 18.9577 59.1514 16.3996C59.1514 13.8338 60.2602 11.3975 62.2006 9.69963L64.9495 12.7451C63.8792 13.6663 63.2709 14.9987 63.2709 16.3996ZM68.1604 21.2646C70.5243 21.2646 72.4955 19.6049 72.9575 17.3893L77 18.2116C76.1607 22.2924 72.5186 25.3683 68.1604 25.3607C67.1902 25.3607 66.22 25.2008 65.296 24.8963L66.6127 21.0134C67.0978 21.1732 67.6137 21.2646 68.1604 21.2646ZM68.1681 7.44602C72.5263 7.44602 76.1684 10.5295 77 14.618L72.9575 15.4326C72.5032 13.1714 70.4935 11.5421 68.1681 11.5421C67.6445 11.5421 67.1132 11.6259 66.6204 11.7934L65.3191 7.91045C66.2354 7.59829 67.1979 7.44602 68.1681 7.44602Z" fill="black"/>
</g>
<defs>
<clipPath id="clip0_69_2048">
<rect width="77" height="29" fill="white"/>
</clipPath>
</defs>
</svg>
