<svg width="115" height="29" viewBox="0 0 115 29" fill="none" xmlns="http://www.w3.org/2000/svg">
<g clip-path="url(#clip0_69_1982)">
<path d="M100.301 17.9302C100.025 18.0783 99.764 18.0316 99.5126 18.0323C97.7829 18.0364 96.0528 18.0345 94.3227 18.0345C90.6493 18.0345 86.9759 18.0335 83.3024 18.0364C83.0318 18.0364 82.7486 17.9894 82.4927 18.1551C82.3968 18.4473 82.5152 18.7151 82.5626 18.9791C82.7579 20.0649 83.1633 21.0671 83.8669 21.9279C84.9267 23.2238 86.3111 23.8782 87.9802 23.9492C88.9904 23.9921 89.9826 23.9092 90.9395 23.5534C91.5029 23.3438 92.0327 23.0737 92.5109 22.7083C93.1686 22.2053 93.6717 21.5829 93.9732 20.806C94.0258 20.67 94.0915 20.5391 94.1675 20.3698C96.1766 20.3711 98.1767 20.3672 100.138 20.373C100.29 20.6002 100.204 20.7564 100.152 20.917C99.6444 22.4821 98.828 23.8689 97.7101 25.0737C95.879 27.0474 93.6121 28.2304 90.9748 28.7379C89.8367 28.9568 88.6883 29.0519 87.5367 28.9735C83.5151 28.6999 80.2191 27.1025 77.9881 23.6369C77.0751 22.2184 76.5412 20.6559 76.3212 18.9836C76.0326 16.7916 76.1942 14.641 76.9844 12.5687C78.4791 8.64879 81.2959 6.22004 85.3862 5.26006C86.4291 5.01527 87.4915 4.88919 88.5572 4.91223C90.8032 4.96087 92.963 5.39926 94.924 6.55763C97.772 8.24048 99.4751 10.73 100.124 13.9575C100.373 15.1997 100.378 16.4547 100.35 17.7123C100.349 17.7737 100.323 17.8348 100.301 17.9308L100.301 17.9302ZM94.2021 13.7872C94.2243 13.7226 94.2396 13.7012 94.2368 13.6826C94.2262 13.6205 94.2175 13.5562 94.1935 13.4986C93.5685 12.0033 92.5667 10.8532 91.0582 10.2078C89.5721 9.57197 88.0399 9.51757 86.4971 9.99596C84.7907 10.5249 83.5741 11.6177 82.8381 13.2394C82.7631 13.4048 82.6338 13.5764 82.7611 13.8116C82.9099 13.8224 83.0773 13.8429 83.2451 13.8452C87.6888 13.9082 93.5768 13.8778 94.2025 13.7872H94.2021Z" fill="#FC6800"/>
<path d="M41.6163 5.35102C42.2763 5.25054 46.4836 5.25662 47.0051 5.34654C47.1526 5.52381 47.1125 5.74461 47.1141 5.95196C47.1195 6.74011 47.1147 7.52825 47.1179 8.31639C47.1186 8.50775 47.124 8.70038 47.1506 8.88918C47.1603 8.95894 47.227 9.05782 47.2857 9.07318C47.3447 9.08853 47.4556 9.03478 47.4925 8.97814C47.5964 8.81814 47.6746 8.64182 47.7615 8.47095C48.0825 7.83992 48.4773 7.26074 48.9779 6.75739C49.9733 5.75645 51.1659 5.18334 52.5747 4.98367C53.6352 4.83327 54.6678 4.93855 55.6824 5.17342C57.7293 5.64701 58.9668 6.97434 59.471 8.9903C59.6573 9.73492 59.7541 10.4939 59.7535 11.2658C59.7503 16.8256 59.7535 22.3858 59.7522 27.9457C59.7522 28.1336 59.732 28.3214 59.7198 28.5268C59.6149 28.5534 59.536 28.5908 59.4568 28.5911C57.7277 28.5953 55.9986 28.5963 54.2692 28.5947C54.1874 28.5947 54.1056 28.5684 53.993 28.5492C53.9712 28.4212 53.9392 28.3009 53.9328 28.1793C53.9225 27.9883 53.9289 27.796 53.9289 27.6043C53.9289 22.8326 53.9289 18.0608 53.9286 13.2888C53.9286 12.9691 53.9405 12.6485 53.9154 12.3307C53.8936 12.0571 53.8481 11.781 53.7756 11.5163C53.6483 11.0507 53.328 10.7442 52.8745 10.5973C52.6337 10.5192 52.3755 10.4562 52.1244 10.4536C50.673 10.4392 49.2213 10.4443 47.7696 10.4459C47.6881 10.4459 47.607 10.4744 47.4922 10.4962C47.4707 10.6248 47.4389 10.7448 47.4332 10.8661C47.4229 11.0786 47.428 11.292 47.428 11.5051C47.428 16.9373 47.429 22.3695 47.4248 27.8017C47.4248 28.0497 47.4931 28.314 47.3302 28.539C46.7944 28.6215 42.2468 28.6215 41.6686 28.5342C41.649 28.427 41.616 28.3076 41.6076 28.1867C41.5961 28.0171 41.6022 27.8459 41.6022 27.6756C41.6022 20.518 41.6022 13.3601 41.6025 6.20252C41.6025 5.92828 41.6112 5.65405 41.6163 5.35134V5.35102Z" fill="#FC6800"/>
<path d="M16.5421 19.6752C16.6649 19.5561 16.7682 19.456 16.8978 19.3305C16.3856 18.0333 15.877 16.7488 15.371 15.4631C14.872 14.195 14.375 12.9262 13.8779 11.6574C13.3747 10.373 12.8523 9.09557 12.3774 7.81623C12.8014 7.5148 14.3281 6.85689 14.9413 6.70138C15.1327 6.87897 15.1786 7.13913 15.2674 7.37144C16.0489 9.42036 16.8234 11.4722 17.6001 13.523C18.0827 14.7972 18.5647 16.0717 19.0486 17.3453C19.1089 17.5043 19.1743 17.6618 19.2468 17.8157C19.2981 17.9248 19.4042 17.9763 19.511 17.9322C19.5982 17.896 19.6909 17.8224 19.7326 17.7408C19.7781 17.6515 19.7756 17.5344 19.7791 17.4288C19.7865 17.216 19.7849 17.0026 19.7849 16.7898C19.7849 13.2526 19.7839 9.71507 19.7871 6.17787C19.7871 5.90524 19.7397 5.62428 19.882 5.32701C20.3031 5.20445 20.7514 5.28093 21.1917 5.26877C21.6612 5.25597 22.1313 5.26077 22.6011 5.26717C23.0449 5.27325 23.4916 5.23421 23.9618 5.30525C23.9958 5.44797 24.0397 5.56636 24.0493 5.68732C24.0647 5.87804 24.0592 6.07067 24.0592 6.26235C24.0596 13.3796 24.0599 20.4969 24.058 27.6142C24.058 27.907 24.099 28.2081 23.9688 28.5035C23.854 28.5303 23.7536 28.5665 23.651 28.5751C23.5025 28.5873 23.3525 28.5806 23.2027 28.5806C15.7286 28.5806 8.25408 28.5812 0.779931 28.5777C0.529799 28.5777 0.265877 28.6427 -0.000610352 28.4679V27.8311C0.146262 27.8033 0.286401 27.763 0.428463 27.7528C0.61959 27.739 0.812641 27.7476 1.00473 27.7476C4.44277 27.7476 7.88113 27.7483 11.3192 27.746C11.5529 27.746 11.788 27.7326 12.0205 27.7073C12.16 27.692 12.2774 27.5512 12.2379 27.4417C12.2065 27.355 12.1215 27.2446 12.0413 27.2257C11.4195 27.0795 10.7942 26.9499 10.1686 26.8213C8.20919 26.4181 6.24885 26.019 4.28948 25.6152C3.14304 25.3787 1.99853 25.1326 0.851443 24.8994C0.641396 24.8565 0.433273 24.8267 0.24856 24.6712C0.246957 24.3167 0.329693 23.972 0.448025 23.588C1.471 23.7423 2.45357 24.0028 3.44641 24.2047C4.44758 24.4085 5.44458 24.6312 6.44351 24.8453C7.44243 25.0594 8.44264 25.2686 9.44029 25.4875C10.4338 25.7054 11.4224 25.9464 12.4563 26.1208C12.5179 25.9525 12.5663 25.8194 12.6067 25.709C12.5009 25.4488 12.2713 25.4114 12.0827 25.3288C10.7746 24.7567 9.46305 24.1922 8.15275 23.6245C6.07985 22.7266 4.00696 21.8287 1.93471 20.9292C1.72081 20.8364 1.51141 20.734 1.27603 20.6252C1.3004 20.2012 1.50307 19.8537 1.64 19.4963C1.89302 19.3785 2.07453 19.544 2.25828 19.6201C4.1083 20.3878 5.95318 21.1673 7.79967 21.9442C9.37102 22.6053 10.9417 23.2684 12.5143 23.9269C12.6702 23.9922 12.8331 24.0479 12.9979 24.0844C13.1464 24.1173 13.2391 24.0117 13.292 23.8901C13.3369 23.7868 13.3193 23.6837 13.2182 23.6072C13.0653 23.4917 12.9174 23.3695 12.7632 23.2553C9.81549 21.07 6.86681 18.8861 3.91909 16.7008C3.7161 16.5504 3.5192 16.3917 3.30018 16.2221C3.56795 15.6737 3.87356 15.1994 4.25838 14.7175C5.12999 15.3361 5.95511 15.9722 6.79145 16.5927C7.614 17.2026 8.43334 17.817 9.25429 18.4291C10.0922 19.0541 10.9302 19.6793 11.7688 20.3033C12.5887 20.9135 13.4097 21.5222 14.2589 22.1526C14.3711 22.0492 14.4708 21.9775 14.5443 21.8844C14.6309 21.775 14.6289 21.6441 14.5452 21.5289C14.4327 21.3737 14.3134 21.223 14.1947 21.0726C11.8701 18.1261 9.54483 15.1802 7.22148 12.2331C7.0791 12.0523 6.90754 11.8888 6.82961 11.6715C7.15382 11.2907 7.90742 10.6623 8.54783 10.2341C8.75435 10.2395 8.81463 10.4261 8.91661 10.5499C11.2611 13.3985 13.6008 16.2512 15.945 19.1001C16.1044 19.2941 16.2336 19.5235 16.5405 19.6752H16.5421Z" fill="#FC6800"/>
<path d="M70.53 23.5208C71.1149 23.5947 71.6251 23.5557 72.1331 23.5624C72.6241 23.5688 73.1153 23.5637 73.6066 23.5637H75.1661C75.2055 23.708 75.2645 23.8251 75.2649 23.9426C75.2713 25.3704 75.27 26.7979 75.2665 28.2257C75.2665 28.3268 75.2328 28.4279 75.2097 28.5594C75.042 28.5738 74.8977 28.5969 74.7537 28.5969C73.4084 28.5985 72.0622 28.6218 70.7179 28.5866C69.8024 28.5626 68.8955 28.4279 68.0216 28.1178C66.6221 27.6215 65.6819 26.675 65.1794 25.2878C64.8645 24.4187 64.7176 23.516 64.6923 22.5967C64.6698 21.7874 64.6811 20.9772 64.6811 20.1676C64.6801 17.1843 64.6811 14.201 64.6801 11.2177C64.6801 10.9643 64.6702 10.7105 64.666 10.5153C64.5015 10.2955 64.3213 10.3208 64.1542 10.3198C63.4923 10.3157 62.8301 10.3179 62.1682 10.317C62.0188 10.317 61.8677 10.3253 61.7202 10.3067C61.3347 10.2587 61.143 9.87696 61.3488 9.55185C61.462 9.37329 61.6089 9.2149 61.7497 9.05522C63.4711 7.1039 65.1941 5.15419 66.9165 3.20351C67.7211 2.29217 68.5248 1.38019 69.3306 0.46981C69.4435 0.342453 69.5526 0.205816 69.6869 0.104058C69.9871 -0.123137 70.4168 0.0416598 70.4841 0.409012C70.5146 0.574768 70.504 0.748524 70.5043 0.91876C70.5059 2.11201 70.5037 3.30559 70.5066 4.49884C70.5072 4.7286 70.5245 4.95835 70.5326 5.15483C70.7448 5.3241 70.9443 5.27738 71.13 5.27802C72.2617 5.28282 73.3937 5.27962 74.5254 5.28154C74.7354 5.28186 74.9455 5.29434 75.1837 5.30234C75.2104 5.42778 75.2498 5.52698 75.2501 5.62618C75.254 7.0751 75.2536 8.52435 75.2511 9.97328C75.2511 10.0555 75.2264 10.1378 75.2152 10.2059C75.0353 10.3659 74.8342 10.3134 74.6492 10.3144C73.5386 10.3198 72.4281 10.3157 71.3176 10.3186C71.0867 10.3192 70.8555 10.3346 70.6015 10.3438C70.5649 10.4981 70.5255 10.6158 70.5114 10.7365C70.4966 10.8629 70.505 10.9918 70.505 11.1195C70.505 14.9978 70.5043 18.8761 70.5056 22.7544C70.5056 22.9858 70.5197 23.2168 70.5297 23.5211L70.53 23.5208Z" fill="#FC6800"/>
<path d="M114.934 4.94235C114.962 5.05851 114.998 5.13882 114.998 5.21946C115.001 6.94454 115.001 8.66995 114.997 10.395C114.997 10.475 114.96 10.5553 114.938 10.6414C114.707 10.7649 114.469 10.7307 114.239 10.7313C112.916 10.7349 111.592 10.7304 110.269 10.7358C110.018 10.7368 109.752 10.6821 109.523 10.8651C109.415 11.1262 109.462 11.4065 109.462 11.6801C109.459 17.0266 109.46 22.373 109.46 27.7198C109.46 27.9735 109.46 28.2273 109.46 28.5015C109.326 28.5402 109.229 28.5924 109.132 28.5924C107.275 28.5965 105.418 28.5949 103.561 28.5924C103.499 28.5924 103.437 28.5687 103.343 28.5492C103.319 28.4372 103.282 28.3185 103.271 28.1978C103.258 28.05 103.266 27.8999 103.266 27.7508C103.266 20.5513 103.266 13.3514 103.267 6.15192C103.267 5.89849 103.274 5.64537 103.278 5.3641C103.427 5.33178 103.546 5.2841 103.664 5.28378C105.329 5.27866 106.994 5.27962 108.659 5.28186C108.763 5.28186 108.866 5.30394 109.011 5.32058C109.032 5.49498 109.067 5.65785 109.068 5.82073C109.074 6.80055 109.07 7.78037 109.073 8.76019C109.073 8.92978 109.081 9.10066 109.106 9.26833C109.112 9.31217 109.189 9.36753 109.241 9.37649C109.293 9.38545 109.378 9.36017 109.406 9.32017C109.464 9.23601 109.503 9.13522 109.534 9.03634C109.671 8.61139 109.777 8.17428 109.944 7.76149C110.103 7.36918 110.295 6.98358 110.523 6.62743C111.136 5.66969 112.047 5.16474 113.161 5.01851C113.729 4.94395 114.298 4.82587 114.934 4.94299L114.934 4.94235Z" fill="#FC6800"/>
<path d="M31.264 5.34679C31.8852 5.25687 36.4318 5.25687 37.0084 5.33975C37.0276 5.44727 37.0597 5.56662 37.0677 5.6879C37.079 5.85782 37.0725 6.02869 37.0725 6.19925C37.0725 13.3588 37.0725 20.518 37.0722 27.6775C37.0722 27.9514 37.0645 28.2253 37.0604 28.5229C36.9231 28.553 36.824 28.594 36.7246 28.594C35.0163 28.5978 33.308 28.5972 31.5998 28.5952C31.5174 28.5952 31.4346 28.5716 31.3224 28.5546C31.2977 28.4295 31.2627 28.3104 31.2528 28.1888C31.2406 28.0407 31.2486 27.8909 31.2486 27.7415C31.2486 20.5394 31.2486 13.3373 31.2493 6.13557C31.2493 5.88342 31.2589 5.63126 31.2647 5.34711L31.264 5.34679Z" fill="#FC6800"/>
</g>
<defs>
<clipPath id="clip0_69_1982">
<rect width="115" height="29" fill="white"/>
</clipPath>
</defs>
</svg>
