<svg width="70" height="54" viewBox="0 0 70 54" fill="none" xmlns="http://www.w3.org/2000/svg">
<g clip-path="url(#clip0_69_1997)">
<path d="M68.6207 53.2677V53.4065H68.7512C68.7757 53.4069 68.7999 53.4008 68.8212 53.3888C68.8297 53.3829 68.8366 53.3749 68.8412 53.3656C68.8457 53.3563 68.8479 53.3461 68.8475 53.3357C68.8479 53.3256 68.8457 53.3155 68.8411 53.3065C68.8365 53.2974 68.8297 53.2897 68.8212 53.284C68.8001 53.2715 68.7758 53.2653 68.7512 53.2663H68.6207V53.2677ZM68.7526 53.1695C68.8086 53.1661 68.864 53.182 68.9094 53.2146C68.9276 53.2294 68.9421 53.2482 68.9516 53.2696C68.9612 53.2909 68.9655 53.3142 68.9644 53.3375C68.9652 53.3575 68.9617 53.3776 68.9541 53.3962C68.9465 53.4148 68.9349 53.4316 68.9203 53.4454C68.8852 53.4756 68.8413 53.4938 68.795 53.4971L68.97 53.6949H68.8352L68.6742 53.4985H68.6221V53.6949H68.5094V53.1699H68.7544L68.7526 53.1695ZM68.7176 53.8761C68.7767 53.8766 68.8353 53.8648 68.8895 53.8414C68.9417 53.8191 68.9892 53.7872 69.0294 53.7473C69.0698 53.7075 69.102 53.6604 69.1243 53.6085C69.1702 53.4985 69.1702 53.3749 69.1243 53.2649C69.1017 53.2132 69.0695 53.1661 69.0294 53.1261C68.9892 53.0863 68.9417 53.0544 68.8895 53.0321C68.8349 53.0099 68.7765 52.9988 68.7176 52.9995C68.6577 52.9989 68.5982 53.01 68.5426 53.0321C68.4892 53.054 68.4406 53.0859 68.3995 53.1261C68.3375 53.1891 68.2957 53.2687 68.2791 53.3551C68.2624 53.4415 68.2718 53.5308 68.306 53.612C68.3273 53.6641 68.3591 53.7113 68.3995 53.7508C68.4406 53.791 68.4892 53.8229 68.5426 53.8449C68.5979 53.8683 68.6575 53.8801 68.7176 53.8796M68.7176 52.8731C68.8714 52.873 69.0191 52.9328 69.1289 53.0397C69.1818 53.091 69.2239 53.1523 69.2528 53.2198C69.2827 53.2892 69.2981 53.3639 69.2981 53.4393C69.2981 53.5148 69.2827 53.5895 69.2528 53.6588C69.2232 53.726 69.1812 53.7871 69.1289 53.839C69.0752 53.89 69.0127 53.9311 68.9444 53.9604C68.8727 53.9906 68.7955 54.006 68.7176 54.0055C68.6388 54.0061 68.5607 53.9907 68.488 53.9604C68.4189 53.9318 68.3559 53.8906 68.3022 53.839C68.2498 53.7852 68.2084 53.7221 68.18 53.6529C68.1501 53.5836 68.1347 53.5089 68.1347 53.4334C68.1347 53.358 68.1501 53.2833 68.18 53.2139C68.2089 53.1464 68.251 53.0851 68.3039 53.0338C68.3569 52.9813 68.4201 52.9399 68.4898 52.9123C68.5624 52.882 68.6405 52.8667 68.7194 52.8672M15.1256 50.8454C15.1256 49.8441 15.7871 49.0216 16.8683 49.0216C17.9015 49.0216 18.5987 49.8087 18.5987 50.8454C18.5987 51.882 17.9015 52.6691 16.8683 52.6691C15.7871 52.6691 15.1256 51.8466 15.1256 50.8454ZM19.7764 50.8454V47.9961H18.5273V48.6902C18.1311 48.1773 17.5301 47.8556 16.7129 47.8556C15.1029 47.8556 13.8394 49.1077 13.8394 50.8467C13.8394 52.5858 15.1022 53.8379 16.7129 53.8379C17.5298 53.8379 18.1311 53.5159 18.5273 53.0033V53.6949H19.775V50.8454H19.7764ZM61.9836 50.8454C61.9836 49.8441 62.6451 49.0216 63.7266 49.0216C64.7609 49.0216 65.457 49.8087 65.457 50.8454C65.457 51.882 64.7609 52.6691 63.7266 52.6691C62.6455 52.6691 61.9836 51.8466 61.9836 50.8454ZM66.6358 50.8454V45.7091H65.3856V48.6902C64.9894 48.1773 64.3885 47.8556 63.5712 47.8556C61.9612 47.8556 60.6977 49.1077 60.6977 50.8467C60.6977 52.5858 61.9605 53.8379 63.5712 53.8379C64.3885 53.8379 64.9894 53.5159 65.3856 53.0033V53.6949H66.6358V50.8454ZM35.28 48.963C36.085 48.963 36.602 49.4634 36.7339 50.3446H33.7533C33.8867 49.5221 34.3903 48.963 35.2804 48.963M35.3052 47.8524C33.6217 47.8524 32.444 49.0671 32.444 50.8436C32.444 52.6548 33.669 53.8348 35.3889 53.8348C36.2541 53.8348 37.0465 53.6207 37.7437 53.0366L37.1315 52.1187C36.6499 52.5004 36.0367 52.7145 35.4603 52.7145C34.6553 52.7145 33.9224 52.3449 33.7421 51.3194H38.0076C38.0198 51.1653 38.0324 51.0099 38.0324 50.8433C38.0198 49.0675 36.9124 47.8521 35.3045 47.8521M50.386 50.8433C50.386 49.8421 51.0475 49.0196 52.1287 49.0196C53.1619 49.0196 53.8591 49.8067 53.8591 50.8433C53.8591 51.8799 53.1619 52.667 52.1287 52.667C51.0475 52.667 50.3857 51.8445 50.3857 50.8433M55.0364 50.8433V47.9961H53.788V48.6902C53.3904 48.1773 52.7909 47.8556 51.9736 47.8556C50.3636 47.8556 49.1001 49.1077 49.1001 50.8467C49.1001 52.5858 50.3629 53.8379 51.9736 53.8379C52.7909 53.8379 53.3904 53.5159 53.788 53.0033V53.6949H55.0368V50.8454L55.0364 50.8433ZM43.3318 50.8433C43.3318 52.5712 44.5449 53.8344 46.3964 53.8344C47.2616 53.8344 47.838 53.6436 48.4614 53.1553L47.8615 52.1541C47.3925 52.4883 46.9 52.667 46.3564 52.667C45.3593 52.6548 44.6261 51.9399 44.6261 50.8433C44.6261 49.7466 45.3593 49.0321 46.3564 49.0196C46.8986 49.0196 47.3911 49.1983 47.8615 49.5325L48.4614 48.5313C47.837 48.043 47.2605 47.8521 46.3964 47.8521C44.5449 47.8521 43.3318 49.115 43.3318 50.8433ZM59.4353 47.8521C58.7146 47.8521 58.2453 48.1863 57.9208 48.6867V47.9961H56.6828V53.6918H57.9334V50.499C57.9334 49.5564 58.3419 49.0327 59.1584 49.0327C59.4258 49.0289 59.6913 49.0776 59.9396 49.1761L60.3246 48.0086C60.0481 47.9007 59.6876 47.8531 59.4346 47.8531M25.9522 48.449C25.3512 48.0562 24.5231 47.8531 23.6096 47.8531C22.1543 47.8531 21.2174 48.5448 21.2174 49.6765C21.2174 50.6052 21.9149 51.1782 23.1994 51.3569L23.7895 51.4402C24.4745 51.5356 24.7979 51.7144 24.7979 52.0361C24.7979 52.4765 24.3429 52.7277 23.4885 52.7277C22.6233 52.7277 21.9989 52.4536 21.5779 52.1318L20.9909 53.0977C21.6759 53.5981 22.5411 53.8369 23.478 53.8369C25.137 53.8369 26.0985 53.0623 26.0985 51.9778C26.0985 50.9765 25.3418 50.4528 24.0916 50.2741L23.5029 50.1894C22.9621 50.12 22.5288 50.0121 22.5288 49.6304C22.5288 49.2139 22.9373 48.9633 23.6226 48.9633C24.3558 48.9633 25.0656 49.2375 25.4135 49.4516L25.9543 48.4504L25.9522 48.449ZM42.07 47.8542C41.3493 47.8542 40.88 48.1884 40.557 48.6888V47.9961H39.319V53.6918H40.5682V50.499C40.5682 49.5564 40.9766 49.0327 41.7932 49.0327C42.0605 49.0289 42.3261 49.0776 42.5744 49.1761L42.9594 48.0086C42.6829 47.9007 42.3223 47.8531 42.0693 47.8531M31.4104 47.9961H29.3678V46.2682H28.105V47.9961H26.9399V49.1282H28.105V51.7265C28.105 53.048 28.6223 53.8351 30.1 53.8351C30.6422 53.8351 31.2666 53.6686 31.6628 53.3947L31.3019 52.3342C30.9292 52.5483 30.5207 52.6562 30.1959 52.6562C29.5715 52.6562 29.3678 52.2745 29.3678 51.7029V49.1292H31.4104V47.9961ZM12.7348 53.6932V50.1186C12.7348 48.7725 11.8696 47.8667 10.4748 47.8545C9.74155 47.8424 8.9852 48.0687 8.45565 48.8679C8.05945 48.2363 7.43505 47.8545 6.55725 47.8545C5.9437 47.8545 5.34415 48.0333 4.8748 48.7003V47.9961H3.6246V53.6918H4.8846V50.5337C4.8846 49.545 5.4376 49.0196 6.2916 49.0196C7.1211 49.0196 7.54075 49.5557 7.54075 50.5212V53.6911H8.80355V50.533C8.80355 49.5443 9.38 49.0189 10.2092 49.0189C11.0621 49.0189 11.4692 49.555 11.4692 50.5205V53.6904L12.7348 53.6932Z" fill="#231F20"/>
<path d="M69.3329 34.7467V33.9138H69.1141L68.8611 34.4854L68.6095 33.9138H68.39V34.7467H68.5454V34.1193L68.782 34.6607H68.943L69.1796 34.1179V34.7467H69.3336H69.3329ZM67.9452 34.7467V34.0565H68.2252V33.9159H67.5098V34.0565H67.7898V34.7467H67.9438H67.9452Z" fill="#F79410"/>
<path d="M44.47 38.3188H25.5399V4.58618H44.4703L44.47 38.3188Z" fill="#FF5F00"/>
<path d="M26.74 21.4531C26.74 14.6104 29.9712 8.51497 35.0028 4.58678C31.1941 1.60896 26.4834 -0.00720478 21.6332 -9.87369e-05C9.6852 -9.87369e-05 0 9.60468 0 21.4531C0 33.3015 9.6852 42.9063 21.6332 42.9063C26.4835 42.9135 31.1944 41.2973 35.0032 38.3194C29.9719 34.3919 26.74 28.2961 26.74 21.4531Z" fill="#EB001B"/>
<path d="M70.0087 21.4532C70.0087 33.3016 60.3235 42.9064 48.3756 42.9064C43.5247 42.9135 38.8133 41.2974 35.0038 38.3195C40.0368 34.3914 43.268 28.2962 43.268 21.4532C43.268 14.6102 40.0368 8.51509 35.0038 4.5869C38.8132 1.60917 43.5245 -0.00695816 48.3752 2.25195e-05C60.3232 2.25195e-05 70.0084 9.6048 70.0084 21.4532" fill="#F79E1B"/>
</g>
<defs>
<clipPath id="clip0_69_1997">
<rect width="70" height="54" fill="white"/>
</clipPath>
</defs>
</svg>
