<svg width="104" height="36" viewBox="0 0 104 36" fill="none" xmlns="http://www.w3.org/2000/svg">
<g clip-path="url(#clip0_69_2010)">
<path d="M42.9324 33.6089V12.9565C42.9324 9.15 46.094 6.07239 50.0044 6.07239H56.2652C60.1548 6.07239 63.2957 9.15 63.2957 12.9363V17.33C63.2957 21.1365 60.1341 24.2141 56.2237 24.2141H47.3837" stroke="#939598" stroke-width="2.9764" stroke-miterlimit="10" stroke-linecap="round" stroke-linejoin="round"/>
<path d="M65.0428 6.09265H67.7677C69.3693 6.09265 70.6588 7.34799 70.6588 8.90705V24.3356" stroke="#939598" stroke-width="2.9764" stroke-miterlimit="10" stroke-linecap="round" stroke-linejoin="round"/>
<path d="M70.0764 3.70341L68.8492 2.50881C68.5372 2.20509 68.5372 1.71915 68.8492 1.43569L70.0764 0.24109C70.3884 -0.0626223 70.8876 -0.0626223 71.1788 0.24109L72.406 1.43569C72.718 1.7394 72.718 2.22534 72.406 2.50881L71.1788 3.70341C70.8668 3.98687 70.3676 3.98687 70.0764 3.70341Z" fill="#32BCAD"/>
<path d="M75.8589 6.07239H78.5421C79.9357 6.07239 81.2461 6.59882 82.2445 7.5707L88.5469 13.7057C89.3581 14.4953 90.6893 14.4953 91.5005 13.7057L97.7821 7.59095C98.7597 6.63932 100.091 6.09264 101.484 6.09264H103.668" stroke="#939598" stroke-width="2.9764" stroke-miterlimit="10" stroke-linecap="round" stroke-linejoin="round"/>
<path d="M75.8589 24.1938H78.5421C79.9357 24.1938 81.2461 23.6674 82.2445 22.6955L88.5469 16.5605C89.3581 15.7708 90.6893 15.7708 91.5005 16.5605L97.7821 22.6752C98.7597 23.6269 100.091 24.1735 101.484 24.1735H103.668" stroke="#939598" stroke-width="2.9764" stroke-miterlimit="10" stroke-linecap="round" stroke-linejoin="round"/>
<path d="M26.8748 28.1016C25.5228 28.1016 24.254 27.5954 23.2972 26.664L18.1388 21.6427C17.7852 21.2985 17.1404 21.2985 16.7868 21.6427L11.6077 26.6843C10.6509 27.6157 9.38205 28.1219 8.03005 28.1219H7.01085L13.5628 34.4998C15.6012 36.4841 18.9293 36.4841 20.9677 34.4998L27.5405 28.1016H26.8748Z" fill="#32BCAD"/>
<path d="M8.00925 10.3243C9.36125 10.3243 10.6301 10.8305 11.5869 11.7618L16.7661 16.8035C17.1405 17.1679 17.7437 17.1679 18.1181 16.8035L23.2973 11.7821C24.2541 10.8507 25.5229 10.3445 26.8749 10.3445H27.4989L20.9261 3.94632C18.8877 1.96207 15.5597 1.96207 13.5213 3.94632L6.96925 10.3243H8.00925Z" fill="#32BCAD"/>
<path d="M32.9277 15.6292L28.9549 11.7619C28.8717 11.8024 28.7677 11.8227 28.6637 11.8227H26.8541C25.9181 11.8227 25.0029 12.1871 24.3581 12.8351L19.1997 17.8564C18.7213 18.3221 18.0765 18.5651 17.4525 18.5651C16.8077 18.5651 16.1837 18.3221 15.7053 17.8564L10.5261 12.8148C9.86046 12.1669 8.94526 11.8024 8.03006 11.8024H5.80446C5.70046 11.8024 5.61726 11.7822 5.53406 11.7417L1.54046 15.6292C-0.497942 17.6135 -0.497942 20.8531 1.54046 22.8373L5.51325 26.7046C5.59645 26.6641 5.67966 26.6438 5.78366 26.6438H8.00925C8.94525 26.6438 9.86045 26.2794 10.5053 25.6315L15.6845 20.5898C16.6205 19.6787 18.2637 19.6787 19.1997 20.5898L24.3581 25.6112C25.0237 26.2591 25.9389 26.6236 26.8541 26.6236H28.6637C28.7677 26.6236 28.8509 26.6438 28.9549 26.6843L32.9277 22.8171C34.9661 20.8328 34.9661 17.6135 32.9277 15.6292Z" fill="#32BCAD"/>
<path d="M48.2989 31.8474C48.0077 31.8474 47.6749 31.9081 47.3213 31.9891V33.2444C47.5501 33.3254 47.8205 33.3659 48.0701 33.3659C48.7149 33.3659 49.0269 33.1432 49.0269 32.5965C49.0477 32.0903 48.7981 31.8474 48.2989 31.8474ZM47.1133 34.1961V31.7056H47.3005L47.3213 31.8069C47.6125 31.7461 48.0285 31.6449 48.3405 31.6449C48.5901 31.6449 48.8189 31.6854 49.0061 31.8271C49.2349 32.0094 49.2973 32.2928 49.2973 32.5965C49.2973 32.9205 49.1933 33.2242 48.8813 33.4064C48.6733 33.5279 48.3821 33.5684 48.1325 33.5684C47.8621 33.5684 47.6125 33.5279 47.3629 33.4469V34.1758H47.1133V34.1961Z" fill="#939598"/>
<path d="M50.9197 31.8474C50.2749 31.8474 49.9837 32.0498 49.9837 32.5965C49.9837 33.1432 50.2749 33.3659 50.9197 33.3659C51.5645 33.3659 51.8557 33.1635 51.8557 32.6168C51.8349 32.0903 51.5645 31.8474 50.9197 31.8474ZM51.7517 33.3862C51.5437 33.5279 51.2525 33.5887 50.9197 33.5887C50.5869 33.5887 50.2957 33.5482 50.0877 33.3862C49.8589 33.2242 49.7549 32.961 49.7549 32.6168C49.7549 32.2928 49.8589 32.0094 50.0877 31.8474C50.2957 31.7056 50.5869 31.6449 50.9197 31.6449C51.2525 31.6449 51.5437 31.6854 51.7517 31.8474C52.0013 32.0094 52.0845 32.2928 52.0845 32.6168C52.0845 32.9407 51.9805 33.2242 51.7517 33.3862Z" fill="#939598"/>
<path d="M54.8092 33.528L54.0812 32.0094H54.0605L53.3532 33.528H53.1661L52.3965 31.7057H52.6461L53.2909 33.2242H53.3117L53.9981 31.7057H54.2061L54.9132 33.2242H54.9341L55.5581 31.7057H55.7869L55.0172 33.528H54.8092Z" fill="#939598"/>
<path d="M57.1804 31.8474C56.5772 31.8474 56.3692 32.1106 56.3484 32.4751H58.0332C57.9916 32.0701 57.7836 31.8474 57.1804 31.8474ZM57.1597 33.5684C56.8061 33.5684 56.5773 33.5279 56.3901 33.366C56.1613 33.1837 56.0988 32.9205 56.0988 32.6168C56.0988 32.3333 56.2028 32.0094 56.4524 31.8474C56.6604 31.7057 56.91 31.6652 57.1804 31.6652C57.43 31.6652 57.7004 31.6854 57.9292 31.8474C58.1996 32.0296 58.2621 32.3333 58.2621 32.6775H56.3484C56.3484 33.0622 56.4732 33.3862 57.2012 33.3862C57.5548 33.3862 57.8669 33.3255 58.1581 33.285V33.4672C57.8461 33.5077 57.4925 33.5684 57.1597 33.5684Z" fill="#939598"/>
<path d="M58.8652 33.5279V31.7056H59.0525L59.0732 31.8069C59.4684 31.7056 59.6556 31.6449 60.0092 31.6449H60.0301V31.8474H59.9677C59.6765 31.8474 59.4893 31.8879 59.0941 31.9891V33.5077L58.8652 33.5279Z" fill="#939598"/>
<path d="M61.2989 31.8474C60.6957 31.8474 60.4877 32.1106 60.4669 32.4751H62.1517C62.1101 32.0701 61.9021 31.8474 61.2989 31.8474ZM61.2781 33.5684C60.9245 33.5684 60.6957 33.5279 60.5085 33.366C60.2797 33.1837 60.2173 32.9205 60.2173 32.6168C60.2173 32.3333 60.3213 32.0094 60.5709 31.8474C60.7789 31.7057 61.0285 31.6652 61.2989 31.6652C61.5485 31.6652 61.8189 31.6854 62.0477 31.8474C62.3181 32.0296 62.3805 32.3333 62.3805 32.6775H60.4669C60.4669 33.0622 60.5917 33.3862 61.3197 33.3862C61.6733 33.3862 61.9853 33.3255 62.2765 33.285V33.4672C61.9645 33.5077 61.6109 33.5684 61.2781 33.5684Z" fill="#939598"/>
<path d="M64.7517 31.9689C64.5229 31.8879 64.2524 31.8474 64.0028 31.8474C63.358 31.8474 63.0461 32.0702 63.0461 32.6168C63.0461 33.1433 63.2956 33.366 63.7948 33.366C64.086 33.366 64.4188 33.3053 64.7724 33.2243V31.9689H64.7517ZM64.7932 33.528L64.7724 33.4267C64.4812 33.4875 64.0652 33.5887 63.7532 33.5887C63.5036 33.5887 63.2749 33.5482 63.0877 33.4065C62.8589 33.2243 62.7964 32.9408 62.7964 32.6371C62.7964 32.3131 62.9004 32.0094 63.2124 31.8474C63.4204 31.726 63.7116 31.6855 63.9612 31.6855C64.2108 31.6855 64.4812 31.726 64.7308 31.807V30.9768H64.9597V33.5685L64.7932 33.528Z" fill="#939598"/>
<path d="M68.1836 31.8474C67.8924 31.8474 67.5596 31.9081 67.206 31.9891V33.2445C67.4348 33.3255 67.7052 33.366 67.9548 33.366C68.5996 33.366 68.9116 33.1432 68.9116 32.5966C68.9116 32.0904 68.662 31.8474 68.1836 31.8474ZM68.7452 33.4065C68.5372 33.5279 68.246 33.5684 67.9964 33.5684C67.726 33.5684 67.4348 33.5279 67.1644 33.4267L67.1436 33.5077H66.998V30.916H67.2268V31.7867C67.518 31.7259 67.934 31.6449 68.2252 31.6449C68.4748 31.6449 68.7036 31.6854 68.8908 31.8272C69.1196 32.0094 69.182 32.2928 69.182 32.5966C69.1612 32.9408 69.0364 33.2445 68.7452 33.4065Z" fill="#939598"/>
<path d="M69.4317 34.2164V34.0139C69.5357 34.0341 69.6397 34.0341 69.7021 34.0341C69.9725 34.0341 70.1389 33.9531 70.2845 33.6494L70.3468 33.5077L69.3692 31.6854H69.6188L70.4508 33.2647H70.4717L71.2621 31.6854H71.5117L70.4508 33.7304C70.2636 34.0949 70.0557 34.2164 69.6605 34.2164C69.6189 34.2366 69.5357 34.2366 69.4317 34.2164Z" fill="#939598"/>
<path d="M74.5485 32.4751H73.8205V33.123H74.5485C75.0477 33.123 75.2349 33.0622 75.2349 32.799C75.2557 32.5156 74.9853 32.4751 74.5485 32.4751ZM74.4237 31.4424H73.8412V32.0904H74.4445C74.9437 32.0904 75.1309 32.0296 75.1309 31.7664C75.1101 31.4829 74.8605 31.4424 74.4237 31.4424ZM75.5469 33.3457C75.2765 33.5077 74.9644 33.5279 74.3612 33.5279H73.2589V31.0577H74.3405C74.8397 31.0577 75.1517 31.0577 75.4221 31.2197C75.6093 31.321 75.6717 31.5032 75.6717 31.7057C75.6717 31.9689 75.5677 32.1309 75.2765 32.2523V32.2726C75.6093 32.3536 75.8172 32.5156 75.8172 32.8598C75.8172 33.0825 75.7341 33.2445 75.5469 33.3457Z" fill="#939598"/>
<path d="M78.0429 32.7585C77.8141 32.7383 77.606 32.7383 77.3772 32.7383C77.0028 32.7383 76.8572 32.8192 76.8572 32.9812C76.8572 33.1432 76.9613 33.2242 77.2525 33.2242C77.5021 33.2242 77.7933 33.1635 78.0429 33.123V32.7585ZM78.1469 33.5279L78.1261 33.4267C77.8141 33.5077 77.4397 33.5887 77.1069 33.5887C76.8989 33.5887 76.6908 33.5684 76.5452 33.4469C76.3996 33.3457 76.3372 33.1837 76.3372 33.0015C76.3372 32.799 76.4204 32.5965 76.6492 32.5155C76.8364 32.4345 77.1069 32.4143 77.3565 32.4143C77.5437 32.4143 77.8141 32.4345 78.0429 32.4345V32.3941C78.0429 32.1106 77.8557 32.0093 77.3149 32.0093C77.1069 32.0093 76.8573 32.0296 76.6285 32.0498V31.6854C76.8989 31.6651 77.1901 31.6449 77.4397 31.6449C77.7725 31.6449 78.1052 31.6651 78.3132 31.8069C78.5212 31.9486 78.5629 32.1511 78.5629 32.4345V33.5077L78.1469 33.5279Z" fill="#939598"/>
<path d="M80.9965 33.5279V32.5156C80.9965 32.1916 80.8301 32.0701 80.5181 32.0701C80.2893 32.0701 79.9981 32.1309 79.7485 32.1916V33.5279H79.2285V31.7057H79.6445L79.6652 31.8271C79.998 31.7462 80.3517 31.6652 80.6637 31.6652C80.8925 31.6652 81.1213 31.7057 81.3085 31.8474C81.4541 31.9689 81.5165 32.1511 81.5165 32.4143V33.5279H80.9965Z" fill="#939598"/>
<path d="M82.9932 33.5684C82.7436 33.5684 82.494 33.5279 82.3068 33.3862C82.078 33.204 82.0157 32.9205 82.0157 32.6168C82.0157 32.3333 82.1197 32.0094 82.3901 31.8474C82.6189 31.7057 82.9101 31.6652 83.2221 31.6652C83.4301 31.6652 83.6381 31.6854 83.8877 31.7057V32.0904C83.7005 32.0701 83.4717 32.0499 83.2845 32.0499C82.7853 32.0499 82.5565 32.1916 82.5565 32.6168C82.5565 33.0015 82.7228 33.1837 83.1388 33.1837C83.3676 33.1837 83.6588 33.1432 83.9292 33.0825V33.4672C83.6172 33.5077 83.2844 33.5684 82.9932 33.5684Z" fill="#939598"/>
<path d="M85.4477 32.0296C84.9485 32.0296 84.7405 32.1713 84.7405 32.5965C84.7405 33.0015 84.9485 33.1837 85.4477 33.1837C85.9469 33.1837 86.1549 33.042 86.1549 32.6168C86.1549 32.2118 85.9469 32.0296 85.4477 32.0296ZM86.3421 33.3862C86.1133 33.5279 85.8221 33.5684 85.4477 33.5684C85.0733 33.5684 84.7821 33.5279 84.5533 33.3862C84.3037 33.2242 84.1997 32.9408 84.1997 32.6168C84.1997 32.2928 84.2829 32.0094 84.5533 31.8474C84.7821 31.7057 85.0733 31.6652 85.4477 31.6652C85.8221 31.6652 86.1133 31.7057 86.3421 31.8474C86.5917 32.0094 86.6957 32.2928 86.6957 32.6168C86.6957 32.9408 86.5917 33.2242 86.3421 33.3862Z" fill="#939598"/>
<path d="M89.7117 33.5685C89.3997 33.5685 89.0461 33.528 88.7965 33.3053C88.4845 33.0623 88.4012 32.6776 88.4012 32.2726C88.4012 31.9082 88.526 31.483 88.9212 31.2198C89.2332 31.0173 89.6076 30.9768 90.0028 30.9768C90.294 30.9768 90.5644 30.9971 90.8972 31.0173V31.4627C90.6268 31.4425 90.2941 31.4223 90.0445 31.4223C89.3165 31.4223 89.0252 31.6855 89.0252 32.2524C89.0252 32.8396 89.3165 33.1028 89.8365 33.1028C90.1901 33.1028 90.5645 33.042 90.9597 32.9611V33.4065C90.5437 33.4875 90.1277 33.5685 89.7117 33.5685Z" fill="#939598"/>
<path d="M92.4572 31.9689C92.0204 31.9689 91.854 32.1106 91.8332 32.3941H93.1021C93.0813 32.1106 92.894 31.9689 92.4572 31.9689ZM92.3741 33.5684C92.0621 33.5684 91.7917 33.5279 91.5837 33.3659C91.3549 33.1837 91.2924 32.9205 91.2924 32.5965C91.2924 32.3131 91.3757 32.0094 91.6461 31.8271C91.8749 31.6651 92.166 31.6449 92.4572 31.6449C92.7276 31.6449 93.0396 31.6651 93.2685 31.8271C93.5596 32.0296 93.6012 32.3536 93.6012 32.718H91.8332C91.854 33.0015 91.9997 33.1837 92.5197 33.1837C92.8525 33.1837 93.2061 33.1432 93.5181 33.0825V33.4469C93.1437 33.5077 92.7485 33.5684 92.3741 33.5684Z" fill="#939598"/>
<path d="M95.9308 33.5279V32.5156C95.9308 32.1916 95.7644 32.0701 95.4524 32.0701C95.2236 32.0701 94.9324 32.1309 94.6828 32.1916V33.5279H94.1628V31.7057H94.5788L94.5996 31.8271C94.9324 31.7462 95.286 31.6652 95.598 31.6652C95.8268 31.6652 96.0556 31.7057 96.2428 31.8474C96.3884 31.9689 96.4508 32.1511 96.4508 32.4143V33.5279H95.9308Z" fill="#939598"/>
<path d="M97.9276 33.5684C97.678 33.5684 97.4492 33.5076 97.3244 33.3052C97.2412 33.1837 97.1788 33.0014 97.1788 32.7585V32.0701H96.8044V31.6854H97.1788L97.2412 31.1387H97.6988V31.6854H98.4268V32.0701H97.6988V32.6572C97.6988 32.799 97.7196 32.9204 97.7404 33.0014C97.8028 33.1229 97.9276 33.1634 98.0732 33.1634C98.198 33.1634 98.3436 33.1432 98.4476 33.1229V33.4874C98.302 33.5481 98.094 33.5684 97.9276 33.5684Z" fill="#939598"/>
<path d="M98.9468 33.5279V31.7057H99.3628L99.3836 31.8271C99.7372 31.7259 99.9868 31.6652 100.32 31.6652H100.382V32.0904H100.195C99.9452 32.0904 99.7372 32.1106 99.4668 32.1916V33.5279H98.9468Z" fill="#939598"/>
<path d="M102.275 32.7585C102.046 32.7383 101.838 32.7383 101.609 32.7383C101.235 32.7383 101.089 32.8192 101.089 32.9812C101.089 33.1432 101.193 33.2242 101.484 33.2242C101.734 33.2242 102.025 33.1635 102.275 33.123V32.7585ZM102.4 33.5279L102.379 33.4267C102.067 33.5077 101.692 33.5887 101.36 33.5887C101.152 33.5887 100.944 33.5684 100.798 33.4469C100.652 33.3457 100.59 33.1837 100.59 33.0015C100.59 32.799 100.673 32.5965 100.902 32.5155C101.089 32.4345 101.36 32.4143 101.609 32.4143C101.796 32.4143 102.067 32.4345 102.296 32.4345V32.3941C102.296 32.1106 102.108 32.0093 101.568 32.0093C101.36 32.0093 101.11 32.0296 100.881 32.0498V31.6854C101.152 31.6651 101.443 31.6449 101.692 31.6449C102.025 31.6449 102.358 31.6651 102.566 31.8069C102.774 31.9486 102.816 32.1511 102.816 32.4345V33.5077L102.4 33.5279Z" fill="#939598"/>
<path d="M103.481 30.9363H104.001V33.528H103.481V30.9363Z" fill="#939598"/>
</g>
<defs>
<clipPath id="clip0_69_2010">
<rect width="104" height="36" fill="white"/>
</clipPath>
</defs>
</svg>
