<svg width="74" height="23" viewBox="0 0 74 23" fill="none" xmlns="http://www.w3.org/2000/svg">
<g clip-path="url(#clip0_69_2043)">
<path d="M32.0805 22.6144H26.0421L29.8161 0.39702H35.8545L32.0805 22.6144ZM20.9627 0.39702L15.2055 15.6784L14.5247 12.3862L12.4942 2.39616C12.4942 2.39616 12.2485 0.39702 9.62888 0.39702H0.11248L0 0.774162C0 0.774162 2.90968 1.35547 6.31664 3.31491L11.5618 22.6172H17.8518L27.4599 0.39702H20.9627ZM68.4559 22.6144H74L69.1663 0.39702H64.3119C62.0712 0.39702 61.5236 2.05304 61.5236 2.05304L52.5193 22.6172H58.8152L60.0732 19.3165H67.7485L68.4559 22.6144ZM61.8107 14.7568L64.9838 6.44264L66.7687 14.7568H61.8107ZM52.9899 5.73939L53.8513 0.966986C53.8513 0.966986 51.1932 -0.00280762 48.4197 -0.00280762C45.4242 -0.00280762 38.3083 1.25055 38.3083 7.35288C38.3083 13.0922 46.6614 13.1631 46.6614 16.1803C46.6614 19.1974 39.1697 18.6558 36.6981 16.7531L35.8012 21.741C35.8012 21.741 38.4978 22.9944 42.6181 22.9944C46.7384 22.9944 52.9544 20.9498 52.9544 15.3863C52.9544 9.61006 44.5273 9.07129 44.5273 6.5589C44.5273 4.05218 50.4058 4.37544 52.9899 5.73939Z" fill="#2566AF"/>
<path d="M14.5247 12.389L12.4942 2.39611C12.4942 2.39611 12.2485 0.396973 9.62888 0.396973H0.11248L0 0.771279C0 0.771279 4.5732 1.67869 8.96288 5.08148C13.1572 8.33681 14.5247 12.389 14.5247 12.389Z" fill="#E6A540"/>
</g>
<defs>
<clipPath id="clip0_69_2043">
<rect width="74" height="23" fill="white"/>
</clipPath>
</defs>
</svg>
